<svg width="24" height="24" viewBox="0 0 24 24" fill="none" xmlns="http://www.w3.org/2000/svg">
<g clip-path="url(#clip0_288_6420)">
<path d="M12.8 6.3999C12.3584 6.3999 12 6.7583 12 7.1999C12 7.6415 12.3584 7.9999 12.8 7.9999C14.5648 7.9999 16 9.4351 16 11.1999C16 11.6415 16.3584 11.9999 16.8 11.9999C17.2416 11.9999 17.6 11.6415 17.6 11.1999C17.6 8.5535 15.4464 6.3999 12.8 6.3999Z" fill="#3D9AE2"/>
<path d="M12.8 3.19995C12.3584 3.19995 12 3.55835 12 3.99995C12 4.44155 12.3584 4.79995 12.8 4.79995C16.3296 4.79995 19.2 7.67035 19.2 11.2C19.2 11.6416 19.5584 12 20 12C20.4416 12 20.8 11.6416 20.8 11.2C20.8 6.78875 17.2112 3.19995 12.8 3.19995Z" fill="#3D9AE2"/>
<path d="M12.8 0C12.3584 0 12 0.3584 12 0.8C12 1.2416 12.3584 1.6 12.8 1.6C18.0944 1.6 22.4 5.9056 22.4 11.2C22.4 11.6416 22.7584 12 23.2 12C23.6416 12 24 11.6416 24 11.2C24 5.024 18.976 0 12.8 0Z" fill="#3D9AE2"/>
<path d="M21.6 17.6001C19.2768 17.6001 17.064 17.0945 15.024 16.0977C14.8304 16.0033 14.6112 15.9921 14.4112 16.0609C14.2112 16.1297 14.0448 16.2769 13.952 16.4689L12.216 20.0609C8.7056 18.1873 5.816 15.2977 3.9424 11.7873L7.5328 10.0481C7.7248 9.9553 7.8704 9.7905 7.9408 9.5905C8.0096 9.3889 7.9968 9.1681 7.9024 8.9761C6.9056 6.9361 6.4 4.7233 6.4 2.4001C6.4 1.9585 6.0416 1.6001 5.6 1.6001H0.8C0.3584 1.6001 0 1.9585 0 2.4001C0 14.3105 9.6896 24.0001 21.6 24.0001C22.0416 24.0001 22.4 23.6417 22.4 23.2001V18.4001C22.4 17.9585 22.0416 17.6001 21.6 17.6001ZM1.616 3.2001H4.8176C4.9104 5.2065 5.3504 7.1329 6.1296 8.9489L3.2448 10.3441C2.288 8.1377 1.7152 5.7297 1.616 3.2001ZM20.8 22.3825C18.2704 22.2817 15.8624 21.7105 13.656 20.7521L15.0512 17.8689C16.8672 18.6497 18.7936 19.0897 20.8 19.1809V22.3825Z" fill="#3D9AE2"/>
</g>
<defs>
<clipPath id="clip0_288_6420">
<rect width="24" height="24" fill="white"/>
</clipPath>
</defs>
</svg>
