<svg width="25" height="19" viewBox="0 0 25 19" fill="none" xmlns="http://www.w3.org/2000/svg">
<path d="M0.833333 16.6666H24.1667C24.3877 16.6666 24.5996 16.7544 24.7559 16.9107C24.9122 17.067 25 17.279 25 17.5C25 17.721 24.9122 17.933 24.7559 18.0892C24.5996 18.2455 24.3877 18.3333 24.1667 18.3333H0.833333C0.61232 18.3333 0.400358 18.2455 0.244078 18.0892C0.0877975 17.933 0 17.721 0 17.5C0 17.279 0.0877975 17.067 0.244078 16.9107C0.400358 16.7544 0.61232 16.6666 0.833333 16.6666Z" fill="#022033"/>
<path d="M24.1667 10H0.833333C0.61232 10 0.400358 9.9122 0.244078 9.75592C0.0877975 9.59964 0 9.38768 0 9.16667C0 8.94565 0.0877975 8.73369 0.244078 8.57741C0.400358 8.42113 0.61232 8.33333 0.833333 8.33333H24.1667C24.3877 8.33333 24.5996 8.42113 24.7559 8.57741C24.9122 8.73369 25 8.94565 25 9.16667C25 9.38768 24.9122 9.59964 24.7559 9.75592C24.5996 9.9122 24.3877 10 24.1667 10Z" fill="#022033"/>
<path d="M24.1667 1.66663H0.833333C0.61232 1.66663 0.400358 1.57883 0.244078 1.42255C0.0877975 1.26627 0 1.05431 0 0.833293C0 0.612279 0.0877975 0.400317 0.244078 0.244036C0.400358 0.0877559 0.61232 -4.07696e-05 0.833333 -4.07696e-05H24.1667C24.3877 -4.07696e-05 24.5996 0.0877559 24.7559 0.244036C24.9122 0.400317 25 0.612279 25 0.833293C25 1.05431 24.9122 1.26627 24.7559 1.42255C24.5996 1.57883 24.3877 1.66663 24.1667 1.66663Z" fill="#022033"/>
</svg>
