<svg width="736" height="400" viewBox="0 0 736 400" fill="none" xmlns="http://www.w3.org/2000/svg">
<ellipse cx="263.309" cy="82.9991" rx="5.30912" ry="5.4343" fill="#D9D9D9"/>
<ellipse cx="518.144" cy="82.999" rx="5.30912" ry="5.4343" fill="#D9D9D9"/>
<ellipse cx="348.252" cy="82.999" rx="5.30912" ry="5.4343" fill="#D9D9D9"/>
<ellipse cx="603.093" cy="82.999" rx="5.30912" ry="5.4343" fill="#D9D9D9"/>
<ellipse cx="433.196" cy="82.999" rx="5.30912" ry="5.4343" fill="#D9D9D9"/>
<ellipse cx="688.037" cy="82.999" rx="5.30912" ry="5.4343" fill="#D9D9D9"/>
<ellipse cx="305.782" cy="82.999" rx="5.30912" ry="5.4343" fill="#D9D9D9"/>
<ellipse cx="560.618" cy="82.999" rx="5.30912" ry="5.4343" fill="#D9D9D9"/>
<ellipse cx="390.725" cy="82.999" rx="5.30912" ry="5.4343" fill="#D9D9D9"/>
<ellipse cx="645.566" cy="82.999" rx="5.30912" ry="5.4343" fill="#D9D9D9"/>
<ellipse cx="475.672" cy="82.999" rx="5.30912" ry="5.4343" fill="#D9D9D9"/>
<ellipse cx="730.511" cy="82.999" rx="5.30912" ry="5.4343" fill="#D9D9D9"/>
<ellipse cx="263.309" cy="160.891" rx="5.30912" ry="5.4343" fill="#D9D9D9"/>
<ellipse cx="518.144" cy="160.891" rx="5.30912" ry="5.4343" fill="#D9D9D9"/>
<ellipse cx="348.252" cy="160.891" rx="5.30912" ry="5.4343" fill="#D9D9D9"/>
<ellipse cx="603.093" cy="160.891" rx="5.30912" ry="5.4343" fill="#D9D9D9"/>
<ellipse cx="433.196" cy="160.891" rx="5.30912" ry="5.4343" fill="#D9D9D9"/>
<ellipse cx="688.037" cy="160.891" rx="5.30912" ry="5.4343" fill="#D9D9D9"/>
<ellipse cx="305.782" cy="160.891" rx="5.30912" ry="5.4343" fill="#D9D9D9"/>
<ellipse cx="560.618" cy="160.891" rx="5.30912" ry="5.4343" fill="#D9D9D9"/>
<ellipse cx="390.725" cy="160.891" rx="5.30912" ry="5.4343" fill="#D9D9D9"/>
<ellipse cx="645.566" cy="160.891" rx="5.30912" ry="5.4343" fill="#D9D9D9"/>
<ellipse cx="475.672" cy="160.891" rx="5.30912" ry="5.4343" fill="#D9D9D9"/>
<ellipse cx="730.511" cy="160.891" rx="5.30912" ry="5.4343" fill="#D9D9D9"/>
<ellipse cx="263.309" cy="238.782" rx="5.30912" ry="5.4343" fill="#D9D9D9"/>
<ellipse cx="518.144" cy="238.782" rx="5.30912" ry="5.4343" fill="#D9D9D9"/>
<ellipse cx="348.252" cy="238.782" rx="5.30912" ry="5.4343" fill="#D9D9D9"/>
<ellipse cx="603.093" cy="238.782" rx="5.30912" ry="5.4343" fill="#D9D9D9"/>
<ellipse cx="433.196" cy="238.782" rx="5.30912" ry="5.4343" fill="#D9D9D9"/>
<ellipse cx="688.037" cy="238.782" rx="5.30912" ry="5.4343" fill="#D9D9D9"/>
<ellipse cx="305.782" cy="238.782" rx="5.30912" ry="5.4343" fill="#D9D9D9"/>
<ellipse cx="560.618" cy="238.782" rx="5.30912" ry="5.4343" fill="#D9D9D9"/>
<ellipse cx="390.725" cy="238.782" rx="5.30912" ry="5.4343" fill="#D9D9D9"/>
<ellipse cx="645.566" cy="238.782" rx="5.30912" ry="5.4343" fill="#D9D9D9"/>
<ellipse cx="475.672" cy="238.782" rx="5.30912" ry="5.4343" fill="#D9D9D9"/>
<ellipse cx="730.511" cy="238.782" rx="5.30912" ry="5.4343" fill="#D9D9D9"/>
<ellipse cx="263.309" cy="316.674" rx="5.30912" ry="5.4343" fill="#D9D9D9"/>
<ellipse cx="518.144" cy="316.674" rx="5.30912" ry="5.4343" fill="#D9D9D9"/>
<ellipse cx="348.252" cy="316.674" rx="5.30912" ry="5.4343" fill="#D9D9D9"/>
<ellipse cx="603.093" cy="316.674" rx="5.30912" ry="5.4343" fill="#D9D9D9"/>
<ellipse cx="433.196" cy="316.674" rx="5.30912" ry="5.4343" fill="#D9D9D9"/>
<ellipse cx="688.037" cy="316.674" rx="5.30912" ry="5.4343" fill="#D9D9D9"/>
<ellipse cx="305.782" cy="316.674" rx="5.30912" ry="5.4343" fill="#D9D9D9"/>
<ellipse cx="560.618" cy="316.674" rx="5.30912" ry="5.4343" fill="#D9D9D9"/>
<ellipse cx="390.725" cy="316.674" rx="5.30912" ry="5.4343" fill="#D9D9D9"/>
<ellipse cx="645.566" cy="316.674" rx="5.30912" ry="5.4343" fill="#D9D9D9"/>
<ellipse cx="475.672" cy="316.674" rx="5.30912" ry="5.4343" fill="#D9D9D9"/>
<ellipse cx="730.511" cy="316.674" rx="5.30912" ry="5.4343" fill="#D9D9D9"/>
<ellipse cx="263.309" cy="394.566" rx="5.30912" ry="5.4343" fill="#D9D9D9"/>
<ellipse cx="518.144" cy="394.566" rx="5.30912" ry="5.4343" fill="#D9D9D9"/>
<ellipse cx="348.252" cy="394.566" rx="5.30912" ry="5.4343" fill="#D9D9D9"/>
<ellipse cx="603.093" cy="394.566" rx="5.30912" ry="5.4343" fill="#D9D9D9"/>
<ellipse cx="433.196" cy="394.566" rx="5.30912" ry="5.4343" fill="#D9D9D9"/>
<ellipse cx="688.037" cy="394.566" rx="5.30912" ry="5.4343" fill="#D9D9D9"/>
<ellipse cx="305.782" cy="394.566" rx="5.30912" ry="5.4343" fill="#D9D9D9"/>
<ellipse cx="560.618" cy="394.566" rx="5.30912" ry="5.4343" fill="#D9D9D9"/>
<ellipse cx="390.725" cy="394.566" rx="5.30912" ry="5.4343" fill="#D9D9D9"/>
<ellipse cx="645.566" cy="394.566" rx="5.30912" ry="5.4343" fill="#D9D9D9"/>
<ellipse cx="475.672" cy="394.566" rx="5.30912" ry="5.4343" fill="#D9D9D9"/>
<ellipse cx="730.511" cy="394.566" rx="5.30912" ry="5.4343" fill="#D9D9D9"/>
<ellipse cx="263.49" cy="5.4343" rx="5.30912" ry="5.4343" fill="#D9D9D9"/>
<ellipse cx="518.325" cy="5.4343" rx="5.30912" ry="5.4343" fill="#D9D9D9"/>
<ellipse cx="348.433" cy="5.4343" rx="5.30912" ry="5.4343" fill="#D9D9D9"/>
<ellipse cx="603.274" cy="5.4343" rx="5.30912" ry="5.4343" fill="#D9D9D9"/>
<ellipse cx="433.376" cy="5.4343" rx="5.30912" ry="5.4343" fill="#D9D9D9"/>
<ellipse cx="688.217" cy="5.4343" rx="5.30912" ry="5.4343" fill="#D9D9D9"/>
<ellipse cx="305.962" cy="5.4343" rx="5.30912" ry="5.4343" fill="#D9D9D9"/>
<ellipse cx="560.797" cy="5.4343" rx="5.30912" ry="5.4343" fill="#D9D9D9"/>
<ellipse cx="390.906" cy="5.4343" rx="5.30912" ry="5.4343" fill="#D9D9D9"/>
<ellipse cx="645.747" cy="5.4343" rx="5.30912" ry="5.4343" fill="#D9D9D9"/>
<ellipse cx="475.854" cy="5.4343" rx="5.30912" ry="5.4343" fill="#D9D9D9"/>
<ellipse cx="730.692" cy="5.4343" rx="5.30912" ry="5.4343" fill="#D9D9D9"/>
<ellipse cx="5.30912" cy="82.999" rx="5.30912" ry="5.4343" fill="#D9D9D9"/>
<ellipse cx="90.2583" cy="82.999" rx="5.30912" ry="5.4343" fill="#D9D9D9"/>
<ellipse cx="175.202" cy="82.999" rx="5.30912" ry="5.4343" fill="#D9D9D9"/>
<ellipse cx="47.7827" cy="82.999" rx="5.30912" ry="5.4343" fill="#D9D9D9"/>
<ellipse cx="132.731" cy="82.999" rx="5.30912" ry="5.4343" fill="#D9D9D9"/>
<ellipse cx="217.676" cy="82.999" rx="5.30912" ry="5.4343" fill="#D9D9D9"/>
<ellipse cx="5.30912" cy="160.891" rx="5.30912" ry="5.4343" fill="#D9D9D9"/>
<ellipse cx="90.2583" cy="160.891" rx="5.30912" ry="5.4343" fill="#D9D9D9"/>
<ellipse cx="175.202" cy="160.891" rx="5.30912" ry="5.4343" fill="#D9D9D9"/>
<ellipse cx="47.7827" cy="160.891" rx="5.30912" ry="5.4343" fill="#D9D9D9"/>
<ellipse cx="132.731" cy="160.891" rx="5.30912" ry="5.4343" fill="#D9D9D9"/>
<ellipse cx="217.676" cy="160.891" rx="5.30912" ry="5.4343" fill="#D9D9D9"/>
<ellipse cx="5.30912" cy="238.782" rx="5.30912" ry="5.4343" fill="#D9D9D9"/>
<ellipse cx="90.2583" cy="238.782" rx="5.30912" ry="5.4343" fill="#D9D9D9"/>
<ellipse cx="175.202" cy="238.782" rx="5.30912" ry="5.4343" fill="#D9D9D9"/>
<ellipse cx="47.7827" cy="238.782" rx="5.30912" ry="5.4343" fill="#D9D9D9"/>
<ellipse cx="132.731" cy="238.782" rx="5.30912" ry="5.4343" fill="#D9D9D9"/>
<ellipse cx="217.676" cy="238.782" rx="5.30912" ry="5.4343" fill="#D9D9D9"/>
<ellipse cx="5.30912" cy="316.674" rx="5.30912" ry="5.4343" fill="#D9D9D9"/>
<ellipse cx="90.2583" cy="316.674" rx="5.30912" ry="5.4343" fill="#D9D9D9"/>
<ellipse cx="175.202" cy="316.674" rx="5.30912" ry="5.4343" fill="#D9D9D9"/>
<ellipse cx="47.7827" cy="316.674" rx="5.30912" ry="5.4343" fill="#D9D9D9"/>
<ellipse cx="132.731" cy="316.674" rx="5.30912" ry="5.4343" fill="#D9D9D9"/>
<ellipse cx="217.676" cy="316.674" rx="5.30912" ry="5.4343" fill="#D9D9D9"/>
<ellipse cx="5.30912" cy="394.566" rx="5.30912" ry="5.4343" fill="#D9D9D9"/>
<ellipse cx="90.2583" cy="394.566" rx="5.30912" ry="5.4343" fill="#D9D9D9"/>
<ellipse cx="175.202" cy="394.566" rx="5.30912" ry="5.4343" fill="#D9D9D9"/>
<ellipse cx="47.7827" cy="394.566" rx="5.30912" ry="5.4343" fill="#D9D9D9"/>
<ellipse cx="132.731" cy="394.566" rx="5.30912" ry="5.4343" fill="#D9D9D9"/>
<ellipse cx="217.676" cy="394.566" rx="5.30912" ry="5.4343" fill="#D9D9D9"/>
<ellipse cx="5.48978" cy="5.4343" rx="5.30912" ry="5.4343" fill="#D9D9D9"/>
<ellipse cx="90.439" cy="5.4343" rx="5.30912" ry="5.4343" fill="#D9D9D9"/>
<ellipse cx="175.382" cy="5.4343" rx="5.30912" ry="5.4343" fill="#D9D9D9"/>
<ellipse cx="47.9624" cy="5.4343" rx="5.30912" ry="5.4343" fill="#D9D9D9"/>
<ellipse cx="132.912" cy="5.4343" rx="5.30912" ry="5.4343" fill="#D9D9D9"/>
<ellipse cx="217.857" cy="5.4343" rx="5.30912" ry="5.4343" fill="#D9D9D9"/>
</svg>
