<svg width="26" height="26" viewBox="0 0 26 26" fill="none" xmlns="http://www.w3.org/2000/svg">
<path d="M24.4529 1.42998C24.2348 1.22085 23.9694 1.08132 23.6852 1.02631C23.4009 0.971307 23.1085 1.0029 22.8393 1.11771L2.00907 10.1735C1.68946 10.3105 1.41879 10.5589 1.2379 10.8812C1.05702 11.2035 0.975726 11.5822 1.0063 11.9601C1.03687 12.338 1.17765 12.6946 1.40738 12.9762C1.63712 13.2577 1.94336 13.449 2.27988 13.521L7.75261 14.7326V22.252C7.75298 22.5965 7.84528 22.9332 8.01792 23.2199C8.19057 23.5066 8.43587 23.7304 8.72303 23.8633C8.91665 23.9506 9.1233 23.9972 9.33236 24.0007C9.54001 24.0021 9.74581 23.9575 9.93765 23.8696C10.1295 23.7816 10.3035 23.6521 10.4495 23.4886L13.53 20.0786L18.1339 24.5628C18.419 24.8458 18.789 25.0016 19.172 24.9999C19.337 25.0015 19.5011 24.9719 19.6572 24.9125C19.9178 24.8208 20.1519 24.6548 20.3361 24.4312C20.5204 24.2075 20.6481 23.9341 20.7066 23.6385L24.9607 3.14121C25.0242 2.83181 25.0106 2.50911 24.9211 2.20766C24.8317 1.90621 24.6698 1.63738 24.4529 1.42998ZM2.37015 11.8222C2.36226 11.7696 2.37155 11.7155 2.39636 11.6698C2.42117 11.624 2.45988 11.5895 2.50556 11.5724L19.9393 3.99057L8.27167 13.3211L2.5507 12.0471C2.50083 12.0409 2.45479 12.0145 2.42145 11.973C2.38812 11.9315 2.36984 11.8778 2.37015 11.8222ZM9.49034 22.4269C9.45904 22.4632 9.41816 22.4876 9.37356 22.4965C9.32895 22.5055 9.28292 22.4986 9.24209 22.4768C9.20242 22.4577 9.16856 22.4263 9.14455 22.3864C9.12055 22.3466 9.1074 22.2999 9.10668 22.252V15.7693L12.5032 19.0918L9.49034 22.4269ZM19.3977 23.3012C19.3899 23.3445 19.372 23.3848 19.3456 23.418C19.3193 23.4511 19.2855 23.4759 19.2476 23.4899C19.2098 23.5039 19.1692 23.5065 19.1302 23.4975C19.0911 23.4884 19.0549 23.4681 19.0253 23.4386L9.5129 14.1705L23.6179 2.90388L19.3977 23.3012Z" fill="#699BF7" stroke="#699BF7"/>
</svg>
