<svg width="20" height="20" viewBox="0 0 20 20" fill="none" xmlns="http://www.w3.org/2000/svg">
<path d="M0 9.99998C0 14.3667 2.8 18.0667 6.66667 19.4333V0.56665C2.8 1.93332 0 5.63332 0 9.99998Z" fill="#ED4C5C"/>
<path d="M10.0003 0C8.83366 0 7.70033 0.2 6.66699 0.566667V6.66667H19.4337C18.067 2.8 14.367 0 10.0003 0Z" fill="#699635"/>
<path d="M19.4337 6.66669H6.66699V13.3334H19.4337C19.8003 12.3 20.0003 11.1667 20.0003 10C20.0003 8.83335 19.8003 7.70002 19.4337 6.66669Z" fill="#F9F9F9"/>
<path d="M6.66699 13.3333V19.4333C7.70033 19.8 8.83366 20 10.0003 20C14.367 20 18.067 17.2333 19.4337 13.3333H6.66699Z" fill="#3E4347"/>
</svg>
