<svg width="20" height="20" viewBox="0 0 20 20" fill="none" xmlns="http://www.w3.org/2000/svg">
<path d="M9.99974 0C5.63307 0 1.93307 2.8 0.566406 6.66667H19.4331C18.0664 2.8 14.3664 0 9.99974 0Z" fill="#ED4C5C"/>
<path d="M9.99974 20C14.3664 20 18.0664 17.2333 19.4331 13.3333H0.566406C1.93307 17.2333 5.63307 20 9.99974 20Z" fill="#F2B200"/>
<path d="M0.566667 6.66666C0.2 7.69999 0 8.83332 0 9.99999C0 11.1667 0.2 12.3 0.566667 13.3333H19.4333C19.8 12.3 20 11.1667 20 9.99999C20 8.83332 19.8 7.69999 19.4333 6.66666H0.566667Z" fill="#2A5F9E"/>
</svg>
