<svg width="20" height="20" viewBox="0 0 20 20" fill="none" xmlns="http://www.w3.org/2000/svg">
<path d="M9.99974 0C5.63307 0 1.93307 2.8 0.566406 6.66667H19.4331C18.0664 2.8 14.3664 0 9.99974 0Z" fill="#428BC1"/>
<path d="M9.99974 20C14.3664 20 18.0664 17.2333 19.4331 13.3333H0.566406C1.93307 17.2333 5.63307 20 9.99974 20Z" fill="#83BF4F"/>
<path d="M0.566667 6.66667C0.2 7.7 0 8.83334 0 10C0 11.1667 0.2 12.3 0.566667 13.3333H19.4333C19.8 12.3 20 11.1667 20 10C20 8.83334 19.8 7.7 19.4333 6.66667H0.566667Z" fill="#ED4C5C"/>
<path d="M9.8666 12.7333C8.3666 12.7333 7.13327 11.5 7.13327 10C7.13327 8.5 8.3666 7.26667 9.8666 7.26667C10.2333 7.26667 10.5666 7.33334 10.8666 7.46667C10.3333 7.06667 9.6666 6.8 8.93327 6.8C7.1666 6.8 5.7666 8.23334 5.7666 10C5.7666 11.7667 7.19993 13.2 8.93327 13.2C9.6666 13.2 10.3333 12.9667 10.8666 12.5333C10.5666 12.6667 10.2333 12.7333 9.8666 12.7333ZM12.7999 10.4667L12.0666 10.9667L12.5333 10.2L11.6666 10L12.5333 9.8L12.0333 9.06667L12.7999 9.53334L12.9999 8.66667L13.1999 9.53334L13.9333 9.03334L13.4666 9.8L14.3333 10L13.4666 10.2L13.9666 10.9333L13.1999 10.4667L12.9999 11.3333L12.7999 10.4667Z" fill="white"/>
</svg>
