<svg width="20" height="20" viewBox="0 0 20 20" fill="none" xmlns="http://www.w3.org/2000/svg">
<path d="M0.400196 8.20004V8.53337H0.600197V8.86671H0.800197V8.53337H1.0002V8.20004H1.2002V7.8667H1.4002V7.53337H1.6002V7.20003H1.8002V6.8667H1.53353V6.53336H1.36687V6.20003H0.766864V6.53336H1.16687V6.8667H0.966865V7.20003H0.766864V7.53337H0.566863V7.20003H0.400196C0.333529 7.4667 0.266862 7.7667 0.200195 8.03337V8.1667H0.400196V8.20004ZM2.7002 3.16669L2.6002 3.26669H2.7002V3.16669Z" fill="white"/>
<path d="M4.26668 1.96668H4.06668V2.30001H3.86668V2.63335H3.66668V2.96668H3.46668V3.30002H3.26668V2.96668H3.06668V2.80002L2.86668 3.00002V3.30002H3.06668V3.63335H3.26668V3.96669H3.06668V4.30002H2.86668V4.63335H2.66668V4.30002H2.50001V3.96669H2.33334V3.63335C2.26667 3.70002 2.20001 3.80002 2.13334 3.86669V3.96669H2.06667C2.00001 4.00002 1.96667 4.03335 1.93334 4.10002V4.26669H1.80001C1.76667 4.30002 1.76667 4.33335 1.73334 4.36669V4.56669H1.60001C1.53334 4.66669 1.46667 4.80002 1.4 4.90002H1.56667V5.23336H1.76667V5.56669H1.96667V5.90003H2.16667V6.23336H2.33334V5.90003H2.53334V5.56669H2.73334V5.23336H2.93334V4.90002H3.13334V4.56669H3.33334V4.23335H3.53334V4.56669H3.66668V4.90002H3.86668V5.23336H4.06668V5.56669H4.26668V5.90003H4.46668V5.23336H4.26668V4.90002H4.46668V3.93335H4.26668V4.26669H4.06668V4.60002H3.86668V4.26669H3.66668V3.93335H3.46668V3.60002H3.66668V3.26668H3.86668V2.93335H4.06668V3.26668H4.26668V3.60002H4.46668V2.60002H4.26668V2.26668H4.46668V1.70001C4.40001 1.73335 4.33335 1.80001 4.26668 1.83335V1.96668ZM2.33334 5.23336H2.13334V4.56669H2.33334V5.23336ZM0.200001 11.1334V10.8H0.400001V10.4667H0.600002V10.1334H0.800003V9.80004H0.566669V9.4667H0.400001V9.13337H0.200001V8.80003H0.0666669C0.0333335 9.23337 0 9.60004 0 10C0 10.4 0.0333335 10.7667 0.0666669 11.1334H0.200001ZM4.26668 9.1667H4.06668V9.50004H3.86668V9.83337H3.66668V10.1667H3.86668V10.5H4.06668V10.8334H4.26668V11.1334H4.43335V8.8667H4.26668V9.1667Z" fill="white"/>
<path d="M2.49981 3.36667C2.43314 3.43334 2.36647 3.53334 2.2998 3.6H2.49981V3.36667ZM2.59981 16.7334L2.69981 16.8334V16.7334H2.59981ZM2.33314 16.4C2.39981 16.4667 2.46647 16.5667 2.53314 16.6334V16.4H2.33314Z" fill="white"/>
<path d="M4.26688 17.7001V17.3667H4.46688V16.3667H4.26688V16.7001H4.06687V17.0334H3.86687V16.7001H3.66687V16.3667H3.46687V16.0334H3.66687V15.7001H3.86687V15.3667H4.06687V15.7001H4.26688V16.0334H4.46688V15.0334H4.26688V14.7001H4.46688V14.0334H4.26688V14.3667H4.06687V14.7001H3.86687V15.0334H3.66687V15.3667H3.46687V15.7001H3.26687V15.3667H3.06687V15.0334H2.86687V14.7001H2.66687V14.3667H2.5002V14.0334H2.33354V13.7001H2.13353V14.0334H1.93353V14.3667H1.73353V14.7001H1.53353V15.0334H1.4002C1.46687 15.1334 1.53353 15.2667 1.6002 15.3667H1.73353V15.5667C1.76687 15.6001 1.76687 15.6334 1.8002 15.6667H1.93353V15.8334C1.96687 15.9667 2.0002 16.0001 2.06687 16.0667H2.13353V16.1667C2.2002 16.2334 2.26687 16.3334 2.33354 16.4001V16.0667H2.53354V15.7334H2.73354V15.4001H2.93354V15.7334H3.13354V16.0667H3.33354V16.4001H3.13354V16.7334H2.93354V17.0334L3.13354 17.2334V17.0667H3.33354V16.7334H3.53354V17.0667H3.66687V17.4001H3.86687V17.7334H4.06687V18.0667H4.26688V18.2001C4.33354 18.2334 4.40021 18.3001 4.46688 18.3334V17.7334L4.26688 17.7001ZM2.33354 15.4001H2.13353V14.7334H2.33354V15.4001ZM4.26688 11.8001H4.06687V11.4667H3.86687V11.1334H3.66687V11.4667H3.46687V11.8001H3.30021V12.1334H3.1002V12.4667H2.9002V12.8001H2.7002V13.1001H2.9002V13.4334H3.1002V13.7667H3.66687V13.4334H3.30021V13.1001H3.46687V12.8001H3.66687V12.4667H3.86687V12.8001H4.06687V13.1001H4.26688V13.4334H4.43354V12.8001H4.26688V12.4667H4.43354V12.1334H4.26688V11.8001ZM4.26688 6.90004H4.06687V7.20004H3.86687V7.53337H3.66687V7.20004H3.46687V6.90004H3.30021V6.5667H3.66687V6.23337H3.1002V6.5667H2.9002V6.90004H2.7002V7.20004H2.9002V7.53337H3.1002V7.86671H3.30021V8.20004H3.46687V8.53338H3.66687V8.86671H3.86687V8.53338H4.06687V8.20004H4.26688V7.86671H4.43354V7.53337H4.26688V7.20004H4.43354V6.5667H4.26688V6.90004ZM0.566863 12.4667H0.766864V12.8001H0.966865V13.1334H1.16687V13.4667H0.766864V13.8001H1.33353V13.4667H1.53353V13.1334H1.73353V12.8001H1.53353V12.4667H1.36687V12.1334H1.16687V11.8001H0.966865V11.4667H0.766864V11.1334H0.566863V11.4667H0.400196V11.8001H0.200195V11.9334C0.266862 12.2334 0.333529 12.5001 0.400196 12.7667H0.566863V12.4667ZM2.7002 8.20004H2.5002V7.86671H2.33354V7.53337H2.13353V7.86671H1.93353V8.20004H1.73353V8.53338H1.53353V8.86671H1.36687V9.20004H1.16687V10.8667H1.36687V11.2H1.56687V11.5334H1.76687V11.8667H1.96687V12.2001H2.16687V12.5334H2.33354V12.2001H2.53354V11.8667H2.73354V11.5334H2.93354V11.2H3.13354V10.8667H3.33354V9.20004H3.13354V8.86671H2.93354V8.53338H2.73354L2.7002 8.20004ZM1.53353 9.96671V10.1667H1.36687V9.83338H1.56687V9.96671H1.53353ZM2.9002 10.0334V9.83338H3.1002V10.1667H2.9002V10.0334ZM2.13353 8.20004H2.33354V8.53338H2.13353V8.20004ZM2.33354 11.8001H2.13353V11.4667H2.33354V11.8001ZM2.7002 9.50005H2.5002V9.83338H2.33354V10.1667H2.53354V10.5H2.73354V11.1667H2.5002V10.8334H2.33354V10.5H2.13353V10.8334H1.93353V11.1667H1.73353V10.5H1.93353V10.1667H2.13353V9.83338H1.93353V9.50005H1.73353V8.83338H1.93353V9.16671H2.13353V9.50005H2.33354V9.16671H2.53354V8.83338H2.73354L2.7002 9.50005Z" fill="white"/>
<path d="M1.73288 4.36669C1.69955 4.43335 1.63288 4.50002 1.59955 4.56669H1.73288V4.36669ZM1.93288 4.26668V4.10002C1.89955 4.16668 1.86621 4.20002 1.79955 4.26668H1.93288ZM2.13288 3.93335V3.83335C2.09955 3.86668 2.09955 3.90002 2.06621 3.93335H2.13288ZM1.36621 9.9667V10.1667H1.53288V9.83337H1.36621V9.9667ZM4.26622 4.93335H4.46622V5.26669H4.26622V4.93335ZM2.49955 3.93335V4.26668H2.69955V4.60002H2.89955V4.26668H3.09955V3.93335H3.29955V3.60002H3.09955V3.26668H2.89955V2.96668L2.69955 3.16668V3.26668H2.59955L2.49955 3.36668V3.60002H2.33288V3.93335H2.49955ZM4.26622 2.30001H4.46622V2.63335H4.26622V2.30001ZM4.26622 3.26668H4.06622V2.96668H3.86622V3.26668H3.66622V3.60002H3.46622V3.93335H3.66622V4.26668H3.86622V4.60002H4.06622V4.26668H4.26622V3.93335H4.43289V3.60002H4.26622V3.26668ZM3.29955 2.96668V3.30001H3.49955V2.96668H3.66622V2.63335H3.86622V2.30001H4.06622V1.96668H4.26622V1.83334C3.89955 2.10001 3.53288 2.36668 3.23288 2.66668C3.19955 2.70001 3.16622 2.73335 3.09955 2.76668V2.93335H3.29955V2.96668ZM2.19955 4.60002H2.13288V5.23335H2.33288V4.60002H2.23288H2.19955ZM2.49955 9.1667H2.33288V9.50004H2.13288V9.1667H1.93288V8.8667H1.73288V9.50004H1.93288V9.83337H2.13288V10.1667H1.93288V10.5H1.73288V11.1334H1.93288V10.8334H2.13288V10.5H2.33288V10.8334H2.49955V11.1334H2.69955V10.5H2.49955V10.1667H2.33288V9.83337H2.49955V9.50004H2.69955V8.8667H2.49955V9.1667ZM4.26622 7.20003H4.46622V7.53336H4.26622V7.20003Z" fill="#C8313E"/>
<path d="M4.26642 5.56668H4.06642V5.23334H3.86642V4.90001H3.66642V4.56667H3.46642V4.23334H3.26642V4.56667H3.06642V4.90001H2.86642V5.23334H2.66641V5.56668H2.49975V5.90001H2.33308V6.23334H2.13308V5.90001H1.93308V5.56668H1.73308V5.23334H1.53308V4.90001H1.39974C1.19974 5.23334 0.999743 5.60001 0.833075 5.96668C0.666408 6.36668 0.533074 6.76668 0.399741 7.16668H0.566408V7.50001H0.766409V7.16668H0.966409V6.83335H1.16641V6.50001H0.766409V6.16668H1.33308V6.50001H1.53308V6.83335H1.73308V7.16668H1.53308V7.50001H1.36641V7.83335H1.16641V8.16668H0.966409V8.50002H0.766409V8.83335H0.566408V8.50002H0.399741V8.16668H0.19974V8.03335C0.133073 8.30002 0.0997397 8.56668 0.0664062 8.83335H0.19974V9.16669H0.399741V9.50002H0.599741V9.83336H0.799742V10.1667H0.566408V10.5H0.399741V10.8334H0.19974V11.1667H0.0664062C0.0997397 11.4334 0.133073 11.7 0.19974 11.9667V11.8334H0.399741V11.5H0.599741V11.1667H0.799742V11.5H0.999743V11.8334H1.19974V12.1667H1.39974V12.5H1.59974V12.8334H1.79975V13.1667H1.53308V13.5H1.36641V13.8334H0.766409V13.5H1.16641V13.1667H0.966409V12.8334H0.766409V12.5H0.566408V12.8334H0.399741C0.533074 13.2 0.666408 13.6 0.833075 14C0.999743 14.3667 1.19974 14.7334 1.39974 15.0667H1.56641V14.7334H1.76641V14.4H1.96641V14.0667H2.16641V13.7334H2.33308V14.0667H2.53308V14.4H2.73308V14.7334H2.93308V15.0667H3.13308V15.4H3.33308V15.7334H3.53308V15.4H3.66642V15.0667H3.86642V14.7334H4.06642V14.4H4.26642V14.0667H4.46642V13.4H4.26642V13.0667H4.06642V12.7334H3.86642V12.4H3.66642V12.7334H3.46642V13.0667H3.26642V13.4H3.66642V13.7334H3.09975V13.4H2.89975V13.0667H2.69975V12.7334H2.89975V12.4H3.09975V12.0667H3.29975V11.7334H3.49975V11.4H3.66642V11.0667H3.86642V11.4H4.06642V11.7334H4.26642V12.0667H4.46642V11.0667H4.26642V10.7334H4.06642V10.4H3.86642V10.0667H3.66642V9.73336H3.86642V9.40002H4.06642V9.06669H4.26642V8.73335H4.46642V7.73335H4.26642V8.06668H4.06642V8.40002H3.86642V8.73335H3.66642V8.40002H3.46642V8.06668H3.26642V7.73335H3.06642V7.40001H2.86642V7.06668H2.66641V6.73335H2.86642V6.40001H3.06642V6.06668H3.66642V6.40001H3.26642V6.73335H3.46642V7.06668H3.66642V7.40001H3.86642V7.06668H4.06642V6.73335H4.26642V6.40001H4.46642V5.73334H4.26642V5.56668ZM2.89975 8.53335V8.86669H3.09975V9.20002H3.29975V10.8667H3.09975V11.2H2.89975V11.5334H2.69975V11.8667H2.49975V12.2H2.33308V12.5334H2.13308V12.2H1.93308V11.8667H1.73308V11.5334H1.53308V11.2H1.36641V10.8667H1.16641V9.20002H1.36641V8.86669H1.56641V8.53335H1.76641V8.20002H1.96641V7.86668H2.16641V7.53335H2.33308V7.86668H2.53308V8.20002H2.73308V8.53335H2.89975Z" fill="#C8313E"/>
<path d="M2.23294 8.53338H2.33295V8.20004H2.13294V8.53338H2.19961H2.23294ZM1.73294 15.4001H1.59961C1.63294 15.4667 1.69961 15.5334 1.73294 15.6001V15.4001ZM1.93294 15.7334H1.79961C1.83294 15.8001 1.86628 15.8334 1.93294 15.9001V15.7334ZM2.13294 16.0667H2.06628C2.09961 16.1001 2.09961 16.1334 2.13294 16.1667V16.0667ZM4.26628 14.7667H4.46629V15.1001H4.26628V14.7667ZM4.26628 15.7334H4.06628V15.4001H3.86628V15.7334H3.66628V16.0667H3.46628V16.4001H3.66628V16.7334H3.86628V17.0334H4.06628V16.7334H4.26628V16.4001H4.43295V16.0667H4.26628V15.7334ZM2.49961 16.4001V16.6334L2.59961 16.7334H2.69961V16.8334L2.89961 17.0334V16.7334H3.09961V16.4001H3.29961V16.0667H3.09961V15.7334H2.89961V15.4001H2.69961V15.7334H2.49961V16.0667H2.33295V16.4001H2.49961ZM4.26628 17.3667H4.46629V17.7001H4.26628V17.3667ZM3.19961 17.3334C3.53295 17.6334 3.86628 17.9334 4.23295 18.1667V18.0334H4.03295V17.7001H3.83295V17.3667H3.66628V17.0334H3.46628V16.7001H3.26628V17.0334H3.06628V17.2001L3.19961 17.3334ZM2.19961 14.7667H2.13294V15.4001H2.33295V14.7667H2.23294H2.19961ZM4.26628 12.4667H4.46629V12.8001H4.26628V12.4667ZM3.09961 10.0334V9.83338H2.89961V10.1667H3.09961V10.0334ZM2.19961 11.4667H2.13294V11.8001H2.33295V11.4667H2.23294H2.19961Z" fill="#C8313E"/>
<path d="M4.43359 14.0001V18.3001C6.0336 19.3667 7.93361 20.0001 10.0003 20.0001C12.6336 20.0001 15.0003 19.0001 16.8003 17.3334C17.8003 16.4001 18.6336 15.2667 19.167 14.0001H4.43359Z" fill="#83BF4F"/>
<path d="M19.167 14C19.7003 12.7667 20.0003 11.4334 20.0003 10C20.0003 8.56669 19.7003 7.23336 19.167 6.00002C18.6003 4.73335 17.8003 3.60001 16.8003 2.66668C15.0003 1 12.6336 0 10.0003 0C7.93361 0 6.0336 0.633335 4.43359 1.70001V14H19.167Z" fill="#C94747"/>
</svg>
