<svg width="20" height="20" viewBox="0 0 20 20" fill="none" xmlns="http://www.w3.org/2000/svg">
<path d="M6.66641 19.4333V14.8333L3.23307 17.3666C4.19974 18.2666 5.36641 18.9666 6.66641 19.4333ZM13.3331 19.4333C14.6331 18.9666 15.7997 18.2666 16.7664 17.3666L13.3331 14.8V19.4333ZM0.566406 13.3333C0.666406 13.6666 0.79974 13.9666 0.966406 14.3L2.26641 13.3333H0.566406ZM17.7331 13.3333L19.0331 14.3C19.1664 14 19.2997 13.6666 19.4331 13.3333H17.7331Z" fill="#2A5F9E"/>
<path d="M7.16686 12H0.200195C0.300195 12.4667 0.433529 12.9 0.566862 13.3333H2.26686L0.966862 14.3C1.23353 14.8667 1.53353 15.3667 1.9002 15.8667L5.33353 13.3333H6.66686V14L2.76686 16.8667L3.23353 17.3333L6.66686 14.8333V19.4333C7.10019 19.6 7.53353 19.7 8.00019 19.8V12H7.16686ZM19.8002 12H12.0002V19.8C12.4669 19.7 12.9002 19.5667 13.3335 19.4333V14.8333L16.7669 17.3333C17.2335 16.9 17.6335 16.4333 18.0335 15.9333L14.4669 13.3333H16.7335L18.7669 14.8333C18.8669 14.6667 18.9669 14.4667 19.0335 14.3L17.7335 13.3333H19.4335C19.5669 12.9 19.7002 12.4667 19.8002 12Z" fill="white"/>
<path d="M1.90039 15.8666C2.16706 16.2333 2.43372 16.5666 2.73372 16.9L6.66706 14.0333V13.3666H5.33372L1.90039 15.8666ZM14.5004 13.3333L18.0671 15.9333C18.2004 15.7666 18.3004 15.6 18.4337 15.4333C18.4671 15.4 18.4671 15.3666 18.5004 15.3666C18.6004 15.2 18.7337 15 18.8337 14.8333L16.7337 13.3333H14.5004Z" fill="#ED4C5C"/>
<path d="M13.3331 0.56665V5.16665L16.7664 2.63332C15.7997 1.73332 14.6331 1.03332 13.3331 0.56665ZM6.66641 0.56665C5.36641 1.03332 4.19974 1.73332 3.23307 2.63332L6.66641 5.19998V0.56665ZM19.4331 6.66665C19.3331 6.33332 19.1997 6.03332 19.0331 5.69998L17.7331 6.66665H19.4331ZM2.26641 6.66665L0.966406 5.69998C0.833073 6.03332 0.69974 6.33332 0.566406 6.66665H2.26641Z" fill="#2A5F9E"/>
<path d="M12.8335 8.00001H19.7669C19.6669 7.53335 19.5335 7.10001 19.4002 6.66668H17.7002L19.0002 5.70001C18.7335 5.13335 18.4335 4.63335 18.0669 4.13335L14.6669 6.66668H13.3335V6.00001L17.2335 3.13335L16.7669 2.66668L13.3335 5.16668V0.566679C12.9002 0.400012 12.4669 0.300012 12.0002 0.200012V8.00001H12.8335ZM0.200195 8.00001H8.0002V0.200012C7.53353 0.300012 7.1002 0.433346 6.66686 0.566679V5.16668L3.23353 2.66668C2.76686 3.10001 2.36686 3.56668 1.96686 4.06668L5.53353 6.66668H3.26686L1.23353 5.16668C1.13353 5.33334 1.03353 5.53335 0.966862 5.70001L2.26686 6.66668H0.566862C0.433529 7.10001 0.300195 7.53335 0.200195 8.00001Z" fill="white"/>
<path d="M18.1002 4.13334C17.8335 3.76667 17.5669 3.43334 17.2669 3.10001L13.3335 5.96667V6.63334H14.6669L18.1002 4.13334ZM5.5002 6.66667L1.96686 4.06667C1.83353 4.23334 1.73353 4.40001 1.6002 4.56667C1.56686 4.60001 1.56686 4.63334 1.53353 4.63334C1.43353 4.80001 1.3002 5.00001 1.2002 5.16667L3.23353 6.66667H5.5002Z" fill="#ED4C5C"/>
<path d="M19.8 8H12V0.2C11.3667 0.0666666 10.7 0 10 0C9.3 0 8.63333 0.0666666 8 0.2V8H0.2C0.0666666 8.63333 0 9.3 0 10C0 10.7 0.0666666 11.3667 0.2 12H8V19.8C8.63333 19.9333 9.3 20 10 20C10.7 20 11.3667 19.9333 12 19.8V12H19.8C19.9333 11.3667 20 10.7 20 10C20 9.3 19.9333 8.63333 19.8 8Z" fill="#ED4C5C"/>
</svg>
