<svg width="20" height="20" viewBox="0 0 20 20" fill="none" xmlns="http://www.w3.org/2000/svg">
<path d="M16.8 2.66667C15 1 12.6333 0 10 0C7.36667 0 5 1 3.2 2.66667H16.8ZM3.2 17.3333C5 19 7.36667 20 10 20C12.6333 20 15 19 16.8 17.3333H3.2ZM0 10C0 11.4333 0.3 12.7667 0.833333 14H19.1667C19.7 12.7667 20 11.4333 20 10C20 8.56667 19.7 7.23333 19.1667 6H0.833333C0.3 7.23333 0 8.56667 0 10Z" fill="#F9F9F9"/>
<path d="M3.23301 17.3333H16.7997C17.7997 16.4 18.633 15.2667 19.1663 14H0.833008C1.39967 15.2667 2.23301 16.4 3.23301 17.3333ZM16.7997 2.66666H3.23301C2.23301 3.59999 1.39967 4.73332 0.866341 5.99999H19.1997C18.633 4.73332 17.7997 3.59999 16.7997 2.66666ZM12.9997 8.33332H10.9997L9.99967 6.66666L8.99967 8.33332H6.99967L7.99967 9.99999L6.99967 11.6667H8.99967L9.99967 13.3333L10.9997 11.6667H12.9997L11.9997 9.99999L12.9997 8.33332ZM9.99967 7.63332L10.433 8.33332H9.59967L9.99967 7.63332ZM7.89967 8.83332H8.73301L8.33301 9.53332L7.89967 8.83332ZM7.89967 11.1667L8.29967 10.4667L8.69967 11.1667H7.89967ZM9.99967 12.3667L9.59967 11.6667H10.433L9.99967 12.3667ZM10.733 11.1667H9.33301L8.59967 9.99999L9.29967 8.83332H10.6997L11.433 9.99999L10.733 11.1667ZM12.133 11.1667H11.2997L11.6997 10.4667L12.133 11.1667ZM11.733 9.49999L11.333 8.79999H12.1663L11.733 9.49999Z" fill="#428BC1"/>
</svg>
