<svg width="20" height="20" viewBox="0 0 20 20" fill="none" xmlns="http://www.w3.org/2000/svg">
<path d="M10 20C15.5228 20 20 15.5228 20 10C20 4.47715 15.5228 0 10 0C4.47715 0 0 4.47715 0 10C0 15.5228 4.47715 20 10 20Z" fill="#00AFCA"/>
<path d="M18.2341 10.3667C18.0008 10.2334 17.7341 10.4 17.7341 10.6334C17.6341 12.2667 14.7674 12.7 13.4008 12.7C12.0341 12.7334 9.10078 12.2334 9.00078 10.6334C9.00078 10.4 8.73411 10.2667 8.50078 10.3667C7.80078 10.7334 7.56745 11.4334 7.73411 12.1334C8.03411 13.4 9.60078 14.3 10.9341 14.7C10.8341 14.9334 10.8008 15.1667 10.7674 15.4C10.7341 15.6667 11.1341 15.7667 11.3341 15.6C12.1008 15.0334 13.3008 14.8 14.3008 14.8C14.7341 14.8 14.7341 14.2 14.3008 14.2C13.4008 14.2 12.4341 14.3667 11.6341 14.7334C11.9341 14.0334 12.6341 13.3334 13.4008 13.3H13.4341C15.0341 13.3334 17.6008 12.7667 18.2674 11.2667C18.3674 11.5334 18.3674 11.8334 18.2674 12.1C17.9341 13.1667 16.7674 13.6 15.6674 13.9C15.2674 14 15.4341 14.6 15.8341 14.4667C17.2341 14.1 18.3341 13.5334 18.9008 12.2667C19.1674 11.6 18.9008 10.8 18.2341 10.3667ZM11.2008 14.1334C10.1008 13.8334 9.26745 13.3 8.60078 12.4334C8.33411 12.0667 8.23411 11.5667 8.46745 11.2C8.96745 12.3667 10.6008 12.9667 12.0674 13.1667C11.7341 13.4334 11.4341 13.7667 11.2008 14.1334Z" fill="#FFE62E"/>
<path d="M13.3342 10.9C14.7518 10.9 15.9009 9.75086 15.9009 8.33333C15.9009 6.9158 14.7518 5.76666 13.3342 5.76666C11.9167 5.76666 10.7676 6.9158 10.7676 8.33333C10.7676 9.75086 11.9167 10.9 13.3342 10.9Z" fill="#FFE62E"/>
<path d="M13.3338 5.43333C13.5005 5.43333 13.5338 5.33334 13.5338 5.23334C13.5338 5.06667 13.3338 4.36667 13.3338 4.36667C13.3338 4.36667 13.1338 5.1 13.1338 5.23334C13.1338 5.33334 13.1671 5.43333 13.3338 5.43333Z" fill="#FFE62E"/>
<path d="M14.4334 5.63332C14.5667 5.69999 14.6667 5.63332 14.7001 5.53332C14.7667 5.39999 14.8334 4.63332 14.8334 4.63332C14.8334 4.63332 14.3667 5.23332 14.3001 5.36665C14.3001 5.46665 14.3001 5.59999 14.4334 5.63332ZM16.0334 9.43332C15.9667 9.56665 16.0334 9.66665 16.1334 9.69998C16.2667 9.76665 17.0334 9.83332 17.0334 9.83332C17.0334 9.83332 16.4334 9.36665 16.3001 9.29998C16.2001 9.29998 16.0667 9.29999 16.0334 9.43332ZM12.2334 11.0333C12.1001 10.9667 12.0001 11.0333 11.9667 11.1333C11.9001 11.2667 11.8334 12.0333 11.8334 12.0333C11.8334 12.0333 12.3001 11.4333 12.3667 11.3C12.3667 11.2 12.3667 11.0667 12.2334 11.0333ZM10.6334 7.23332C10.7001 7.09999 10.6334 6.99998 10.5334 6.96665C10.4001 6.89998 9.6334 6.83332 9.6334 6.83332C9.6334 6.83332 10.2334 7.29998 10.3667 7.36665C10.4667 7.36665 10.6001 7.36665 10.6334 7.23332ZM15.4001 6.26665C15.5001 6.36665 15.6334 6.33332 15.7001 6.26665C15.8001 6.16665 16.1667 5.49999 16.1667 5.49999C16.1667 5.49999 15.5001 5.86665 15.4001 5.96665C15.3001 6.06665 15.3001 6.16665 15.4001 6.26665ZM15.4001 10.4C15.3001 10.5 15.3334 10.6 15.4001 10.7C15.5001 10.8 16.1667 11.1667 16.1667 11.1667C16.1667 11.1667 15.8001 10.5 15.7001 10.4C15.6001 10.3 15.5001 10.3 15.4001 10.4ZM11.2667 10.4C11.1667 10.3 11.0334 10.3333 10.9667 10.4C10.8667 10.5 10.5001 11.1667 10.5001 11.1667C10.5001 11.1667 11.1667 10.8 11.2667 10.7C11.3667 10.6 11.3667 10.5 11.2667 10.4ZM11.2667 6.26665C11.3667 6.16665 11.3334 6.03332 11.2667 5.96665C11.1667 5.86665 10.5001 5.49999 10.5001 5.49999C10.5001 5.49999 10.8667 6.16665 10.9667 6.26665C11.0667 6.36665 11.1667 6.36665 11.2667 6.26665ZM16.0334 7.23332C16.1001 7.36665 16.2001 7.39999 16.3001 7.33332C16.4334 7.26665 17.0334 6.79998 17.0334 6.79998C17.0334 6.79998 16.2667 6.89999 16.1334 6.93332C16.0334 6.99999 15.9667 7.06665 16.0334 7.23332ZM14.4334 11.0333C14.3001 11.1 14.2667 11.2 14.3334 11.3C14.4001 11.4333 14.8667 12.0333 14.8667 12.0333C14.8667 12.0333 14.7667 11.2667 14.7334 11.1333C14.6667 11.0333 14.6001 10.9667 14.4334 11.0333ZM10.6334 9.43332C10.5667 9.29999 10.4667 9.26665 10.3667 9.33332C10.2334 9.39999 9.6334 9.86665 9.6334 9.86665C9.6334 9.86665 10.4001 9.76665 10.5334 9.73332C10.6334 9.66665 10.7001 9.59999 10.6334 9.43332ZM12.2334 5.63332C12.3667 5.56665 12.4001 5.46665 12.3334 5.36665C12.2667 5.23332 11.8001 4.63332 11.8001 4.63332C11.8001 4.63332 11.9001 5.36665 11.9334 5.53332C12.0001 5.63332 12.0667 5.69999 12.2334 5.63332ZM13.9001 5.46665C14.0334 5.49999 14.1334 5.39999 14.1334 5.29999C14.1667 5.16665 14.1001 4.39999 14.1001 4.39999C14.1001 4.39999 13.7667 5.06665 13.7334 5.23332C13.7001 5.33332 13.7667 5.43332 13.9001 5.46665ZM16.2001 8.89999C16.1667 9.03332 16.2667 9.13332 16.3667 9.13332C16.5001 9.16665 17.2667 9.09999 17.2667 9.09999C17.2667 9.09999 16.6001 8.76665 16.4334 8.73332C16.3334 8.69999 16.2334 8.76665 16.2001 8.89999ZM12.7667 11.2C12.6334 11.1667 12.5334 11.2667 12.5334 11.3667C12.5001 11.5 12.5667 12.2667 12.5667 12.2667C12.5667 12.2667 12.9001 11.6 12.9334 11.4333C12.9667 11.3333 12.9001 11.2333 12.7667 11.2ZM10.4667 7.76665C10.5001 7.59999 10.4001 7.53332 10.3001 7.53332C10.1667 7.49999 9.40007 7.56665 9.40007 7.56665C9.40007 7.56665 10.0667 7.89999 10.2334 7.93332C10.3334 7.96665 10.4334 7.89999 10.4667 7.76665ZM14.9667 5.89999C15.1001 5.96665 15.2001 5.93332 15.2667 5.83332C15.3667 5.69999 15.5667 4.99999 15.5667 4.99999C15.5667 4.99999 15.0001 5.49999 14.9001 5.59999C14.8334 5.69999 14.8334 5.83332 14.9667 5.89999ZM15.7667 9.96665C15.7001 10.1 15.7334 10.2 15.8334 10.2667C15.9667 10.3667 16.6667 10.5667 16.6667 10.5667C16.6667 10.5667 16.1667 9.99999 16.0667 9.89999C15.9667 9.83332 15.8334 9.83332 15.7667 9.96665ZM11.7001 10.7667C11.5667 10.7 11.4667 10.7333 11.4001 10.8333C11.3334 10.9333 11.1001 11.6667 11.1001 11.6667C11.1001 11.6667 11.6667 11.1667 11.7667 11.0667C11.8334 10.9667 11.8334 10.8333 11.7001 10.7667ZM10.9001 6.69999C10.9667 6.56665 10.9334 6.46665 10.8334 6.39999C10.7334 6.33332 10.0001 6.09999 10.0001 6.09999C10.0001 6.09999 10.5001 6.66665 10.6001 6.76665C10.7001 6.83332 10.8334 6.83332 10.9001 6.69999ZM15.7667 6.69999C15.8667 6.83332 15.9667 6.83332 16.0667 6.76665C16.2001 6.66665 16.6667 6.09999 16.6667 6.09999C16.6667 6.09999 15.9334 6.33332 15.8334 6.39999C15.7334 6.49999 15.6667 6.59999 15.7667 6.69999ZM14.9667 10.7667C14.8334 10.8667 14.8334 10.9667 14.9001 11.0667C15.0001 11.2 15.5667 11.6667 15.5667 11.6667C15.5667 11.6667 15.3334 10.9333 15.2667 10.8333C15.1667 10.7333 15.0667 10.6667 14.9667 10.7667ZM10.9001 9.96665C10.8001 9.83332 10.7001 9.83332 10.6001 9.89999C10.4667 9.99999 10.0001 10.5667 10.0001 10.5667C10.0001 10.5667 10.7334 10.3333 10.8334 10.2667C10.9334 10.1667 11.0001 10.0667 10.9001 9.96665ZM11.7001 5.89999C11.8334 5.79999 11.8334 5.69999 11.7667 5.59999C11.6667 5.46665 11.1001 4.99999 11.1001 4.99999C11.1001 4.99999 11.3334 5.73332 11.4001 5.83332C11.5001 5.93332 11.6001 5.99999 11.7001 5.89999ZM16.2001 7.76665C16.2334 7.89999 16.3334 7.96665 16.4334 7.93332C16.5667 7.89999 17.2667 7.56665 17.2667 7.56665C17.2667 7.56665 16.5001 7.49999 16.3667 7.53332C16.2334 7.53332 16.1667 7.59999 16.2001 7.76665ZM13.9001 11.2C13.7667 11.2333 13.7001 11.3333 13.7334 11.4333C13.7667 11.5667 14.1001 12.2667 14.1001 12.2667C14.1001 12.2667 14.1667 11.5 14.1334 11.3667C14.1334 11.2333 14.0667 11.1667 13.9001 11.2ZM10.4667 8.89999C10.4334 8.76665 10.3334 8.69999 10.2334 8.73332C10.1001 8.76665 9.40007 9.09999 9.40007 9.09999C9.40007 9.09999 10.1667 9.16665 10.3001 9.13332C10.4334 9.13332 10.5001 9.06665 10.4667 8.89999ZM12.7667 5.46665C12.9001 5.43332 12.9667 5.33332 12.9334 5.23332C12.9001 5.09999 12.5667 4.39999 12.5667 4.39999C12.5667 4.39999 12.5001 5.16665 12.5334 5.29999C12.5334 5.43332 12.6001 5.49999 12.7667 5.46665ZM4.8334 16.5333H4.46673V17.7667H3.7334C4.10007 18.0667 4.46673 18.3 4.86673 18.5667V16.5333H4.8334ZM4.46673 2.23332V3.46665H4.8334V1.43332C4.4334 1.66665 4.06673 1.93332 3.70007 2.23332H4.46673ZM3.6334 2.26665C3.5334 2.33332 3.4334 2.43332 3.3334 2.53332L4.3334 4.69999H3.50007V3.46665H3.1334V4.69999H2.30007L3.26673 2.59999C3.00007 2.83332 2.7334 3.09999 2.50007 3.39999L1.7334 5.03332L3.0334 7.83332H2.20007V6.59999H1.8334V9.86665H2.20007V8.49999H3.06673L2.56673 9.99999L3.06673 11.4667H2.20007V10.1H1.8334V13.3667H2.20007V12.1333H3.0334L1.7334 14.9333L2.50007 16.5667C2.7334 16.8333 3.00007 17.1 3.26673 17.3667L2.30007 15.2667H3.1334V16.5H3.50007V15.2667H4.3334L3.3334 17.4333C3.4334 17.5333 3.5334 17.6 3.6334 17.7L4.90007 14.9333L3.60007 12.1333H4.4334V13.3667H4.80007V10.1H4.4334V11.4667H3.56673L4.06673 9.99999L3.56673 8.53332H4.4334V9.89999H4.80007V6.63332H4.4334V7.86665H3.60007L4.90007 5.06665L3.6334 2.26665ZM4.36673 14.6333H3.5334V13.4H3.16673V14.6333H2.30007L3.3334 12.4333L4.36673 14.6333ZM3.3334 11.0667L3.06673 10.3H3.60007L3.3334 11.0667ZM3.60007 9.69998H3.06673L3.3334 8.93332L3.60007 9.69998ZM3.3334 7.59999L2.30007 5.39999H3.1334V6.63332H3.50007V5.39999H4.3334L3.3334 7.59999Z" fill="#FFE62E"/>
</svg>
