<svg width="20" height="20" viewBox="0 0 20 20" fill="none" xmlns="http://www.w3.org/2000/svg">
<path d="M19.9997 10C19.9997 5.63333 17.233 1.93333 13.333 0.566666V19.4333C17.233 18.0667 19.9997 14.3667 19.9997 10Z" fill="#ED4C5C"/>
<path d="M0 10C0 14.3667 2.8 18.0667 6.66667 19.4333V0.566666C2.8 1.93333 0 5.63333 0 10Z" fill="#2A5F9E"/>
<path d="M13.3337 0.566667C12.3003 0.2 11.167 0 10.0003 0C8.83366 0 7.70033 0.2 6.66699 0.566667V19.4333C7.70033 19.8 8.83366 20 10.0003 20C11.167 20 12.3003 19.8 13.3337 19.4333V0.566667Z" fill="#FFE62E"/>
<path d="M13.0672 9.63334H13.1005V9.30001L12.8339 9.50001L12.8672 9.53334L12.8339 9.56668V9.60001H12.6672C12.6339 9.63334 12.6339 9.66668 12.6339 9.73334V9.86668C12.6339 9.93334 12.6005 9.96668 12.6005 9.96668L12.5672 10V7.70001C12.5672 7.50001 11.9339 6.90001 11.9339 6.90001L11.3005 7.40001L11.3339 7.80001C11.2005 7.80001 10.7005 8.10001 10.6339 8.10001C10.1005 7.80001 10.4672 7.13334 10.4672 7.10001L10.5339 7.16668C10.5339 7.16668 10.6005 6.90001 10.4672 6.70001L10.7339 6.63334C10.7339 6.63334 10.1005 6.16668 9.50052 6.40001C9.50052 6.33334 9.50052 6.30001 9.46719 6.26668L9.40052 6.20001L9.36719 6.30001C9.36719 6.33334 9.33385 6.33334 9.30052 6.33334H9.23385V6.26668C9.23385 6.23334 9.23385 6.23334 9.26719 6.20001L9.36719 6.16668L9.33385 6.13334C9.26719 6.06668 9.10052 6.06668 9.03385 6.13334L8.96719 6.20001L9.06719 6.23334C9.10052 6.23334 9.10052 6.26668 9.10052 6.30001V6.33334H9.03385C9.00052 6.33334 9.00052 6.33334 8.96719 6.30001L8.93385 6.23334L8.86719 6.30001C8.83385 6.33334 8.83385 6.40001 8.83385 6.43334C8.83385 6.50001 8.83385 6.53334 8.86719 6.56668L8.93385 6.63334L8.96719 6.56668C8.96719 6.53334 9.00052 6.53334 9.03385 6.53334H9.10052V7.00001C9.10052 7.03334 9.10052 7.03334 9.06719 7.03334L8.90052 7.10001L9.10052 7.13334C9.13385 7.13334 9.16719 7.20001 9.16719 7.23334L9.20052 7.36668L9.23385 7.23334C9.23385 7.20001 9.26719 7.13334 9.30052 7.13334L9.50052 7.10001C9.50052 7.16668 9.60052 7.80001 9.23385 8.06668C9.16719 8.03334 8.66719 7.76668 8.53385 7.76668L8.56719 7.36668L7.93385 6.86668C7.93385 6.86668 7.30052 7.46668 7.30052 7.66668V9.26668L7.26719 9.23334L7.23385 9.30001C7.23385 9.30001 7.20052 9.33334 7.20052 9.36668C7.13385 9.30001 7.06719 9.26668 7.03385 9.26668L7.00052 9.23334V9.30001C7.00052 9.30001 6.96719 9.46668 7.00052 9.56668H6.86719V9.63334C6.86719 9.63334 6.90052 9.80001 7.03385 9.90001C7.10052 9.96668 7.20052 9.96668 7.23385 9.96668L7.30052 10.1V10.1333C7.23385 10.1 7.16719 10.1 7.13385 10.1H7.00052L7.03385 10.1667C7.03385 10.1667 7.06719 10.2 7.06719 10.2333H7.00052L7.03385 10.2667C7.03385 10.2667 7.13385 10.4333 7.26719 10.4667H7.33385C7.33385 11.2667 7.23385 12.7333 7.23385 12.7333L8.16719 11.9C8.16719 11.9 8.00052 12.1333 7.96719 12.2333C7.93385 12.3667 8.03385 12.6667 8.40052 12.5333L8.36719 12.7L8.66719 12.8667C8.63385 12.9 8.43385 12.9667 8.43385 12.9667L9.90052 13.9333L11.3672 12.9667C11.3672 12.9667 10.5672 12.6667 10.3005 11.6L10.5339 11.5C10.6339 11.5667 11.3005 12.4333 11.3005 12.4333L11.2672 12.4667H11.2339C11.2005 12.4667 11.2005 12.5 11.2005 12.7667V12.8333L11.2672 12.8C11.5005 12.6333 11.5005 12.6333 11.5005 12.6C11.5005 12.6 11.5005 12.5667 11.4672 12.5667H11.5005C11.5339 12.5667 11.7005 12.5 11.7339 12.4333C11.9005 12.2 11.8005 12 11.8005 12C11.8672 12.1 12.6005 12.7333 12.6005 12.7333C12.6005 12.7333 12.5005 11.3 12.5005 10.5333L12.6672 10.2333H12.7005L12.7339 10.2V10.1667C12.7339 10.1667 12.7672 10.1667 12.7672 10.1333C12.8005 10.1 12.8005 10.1 12.8005 10.0667C12.8005 10.0333 12.8005 10.0333 12.8672 9.96668C12.9005 9.93334 12.9339 9.90001 12.9672 9.90001C13.0339 9.86668 13.0672 9.83334 13.0672 9.80001C13.0672 9.80001 13.0672 9.76668 13.0005 9.66668L13.0339 9.63334C13.0672 9.66668 13.0672 9.63334 13.0672 9.63334ZM9.36719 6.53334C9.33385 6.53334 9.30052 6.53334 9.30052 6.56668V6.53334H9.36719C9.36719 6.50001 9.40052 6.53334 9.36719 6.53334ZM11.4672 11.9C11.4339 11.8333 11.2005 11.3667 11.1339 11.2667C11.1672 11.2333 11.2005 11.2333 11.2672 11.2C11.3339 11.1667 11.4005 11.1 11.4339 11.0667C11.5005 11.3 11.6005 11.6333 11.7005 11.8333C11.7005 11.8333 11.4672 11.9333 11.4672 11.9ZM8.36719 11.9333L8.33385 11.8333C8.36719 11.8 8.46719 11.7333 8.50052 11.6667C8.56719 11.5333 8.53385 11.4 8.53385 11.3667V11.3L8.43385 11.3333C8.43385 11.3 8.46719 11.1 8.50052 11C8.53385 11.0333 8.60052 11.1 8.66719 11.1333C8.70052 11.1667 8.73385 11.1667 8.80052 11.2C8.73385 11.6 8.36719 11.9333 8.36719 11.9333ZM9.33385 7.06668C9.30052 7.06668 9.30052 7.03334 9.30052 7.03334V6.90001C9.40052 6.93334 9.46719 7.00001 9.50052 7.13334L9.33385 7.06668ZM8.80052 12.5333L8.60052 12.4C8.60052 12.3667 9.23385 11.6333 9.30052 11.5333L9.53385 11.6333C9.43385 11.8667 9.06719 12.6 8.73385 12.8667L8.80052 12.5333Z" fill="#997361"/>
<path d="M8.50026 12.4L8.73359 12.5333L8.66693 12.8333L8.43359 12.6667L8.50026 12.4Z" fill="#FFD200"/>
<path d="M7.3334 9.73334L7.2334 9.76667L8.2334 12H8.3334L7.3334 9.73334ZM8.5334 12.3667L8.46673 12.4333L8.50006 12.5333L8.60006 12.5L8.5334 12.3667Z" fill="#FFD200"/>
<path d="M7.63372 11.5L7.76706 11.7L7.63372 11.7333L8.00039 11.9L8.20039 11.8333L8.16706 11.7L7.63372 11.5ZM8.30039 11.1666L8.13372 11.4L8.26706 11.8333L8.46706 11.6666L8.50039 11.4L8.36706 11.4666L8.30039 11.1666ZM7.90039 11.1333L7.63372 11.1666L7.40039 11.0666L7.56706 11L7.43372 10.8333H7.63372L7.90039 11.1333Z" fill="#699635"/>
<path d="M7.96693 10.4667L8.00026 10.6667L8.10026 10.6V10.9667L7.90026 11.1667L7.73359 10.8667L7.76693 10.6667L7.96693 10.4667ZM7.06693 10.1L7.33359 10.1333L7.53359 10.4H7.26693L7.06693 10.2L7.20026 10.1667L7.06693 10.1ZM7.53359 9.83332L7.60026 9.99999L7.70026 9.89999L7.76693 10.2333L7.63359 10.4667L7.43359 9.99999L7.53359 9.83332ZM7.03359 9.29999L7.06693 9.53332L7.13359 9.63332L6.93359 9.56665L7.06693 9.79999L7.30026 9.86665L7.40026 9.59999L7.26693 9.29999L7.23359 9.46665L7.03359 9.29999Z" fill="#699635"/>
<path d="M12.8997 9.5L12.933 9.53334L12.8997 9.56667V9.63334H12.6997V9.86667L12.5997 10L12.633 10.0667L12.5997 10.1V10.2L11.8997 11.5333L11.733 11.7L11.7663 11.8667L11.6663 11.9L11.6997 12.0333L11.833 12L11.7997 11.9L11.933 11.8333L11.9663 11.6L12.6663 10.2667L12.733 10.2V10.1667L12.7997 10.1333L12.8663 9.96667L13.033 9.83334L12.9663 9.66667L13.033 9.63334V9.56667H13.0663V9.36667L12.8997 9.5ZM11.3997 12.5V12.5333H11.333V12.8L11.533 12.6333L11.4997 12.5667L11.533 12.5333L11.4997 12.4667H11.4663L11.3997 12.5Z" fill="#FFD200"/>
<path d="M11.4331 8.43334C11.4331 8.33334 11.5665 8.23334 11.5665 8.23334H8.2998C8.2998 8.23334 8.43314 8.33334 8.43314 8.43334V10.8667C8.43314 10.9333 8.46647 10.9667 8.4998 11C8.53314 11.0333 8.5998 11.1 8.66647 11.1333C8.86647 11.2667 9.23314 11.4333 9.4998 11.5333C9.73314 11.6333 9.83314 11.6667 9.93314 11.8333C10.0665 11.7 10.1331 11.6333 10.3665 11.5333C10.6331 11.4 10.9998 11.2667 11.1998 11.1333C11.2665 11.1 11.3331 11.0333 11.3665 11C11.3998 10.9667 11.4331 10.9333 11.4331 10.8667V8.43334Z" fill="#F5D402"/>
<path d="M8.53333 9.8V8.43334C8.53333 8.36667 8.5 8.3 8.5 8.3H11.4333C11.4333 8.3 11.4 8.33334 11.4 8.43334V9.8L9.96667 10.2333L8.53333 9.8Z" fill="#ED4C5C"/>
<path d="M11.3664 9.79999H8.56641V10.8667C8.56641 10.9333 8.63307 11.0333 8.93307 11.2C9.46641 11.4667 9.86641 11.5667 9.96641 11.7333C10.0997 11.6 10.4997 11.4667 10.9997 11.2C11.3331 11.0333 11.3664 10.9333 11.3664 10.8667V9.79999Z" fill="#428BC1"/>
<path d="M8.96686 10.4333L8.7002 10.7667L8.93353 11.1333L9.36686 11.0333L9.4002 10.6L8.96686 10.4333ZM10.5002 10.8333C10.5002 10.9667 10.6335 11.1 10.7669 11.1333C10.7335 11.1 10.7335 11.0333 10.7335 11C10.7002 10.8333 10.8335 10.7 11.0335 10.7H11.1335C11.0669 10.6 10.9335 10.5333 10.8002 10.5333C10.6335 10.5333 10.5002 10.6667 10.5002 10.8333ZM9.2002 9.06666L9.66686 9.56666L9.80019 9.49999L9.96686 9.56666L10.1335 9.49999L10.2669 9.56666L10.7335 9.06666L10.5669 8.53333L10.9335 9.09999L10.4335 9.73333L10.5335 9.99999L10.2669 10.1L10.2335 11.0667L10.3669 11.2L9.96686 11.4333L9.56686 11.2L9.7002 11.0667L9.66686 10.1L9.4002 9.99999L9.5002 9.73333L9.0002 9.09999L9.36686 8.53333L9.2002 9.06666Z" fill="#FFE62E"/>
<path d="M9.93366 8.56665L10.0003 8.73332L10.167 8.66665L10.1003 8.83332L10.267 8.89998L10.1003 8.96665L10.167 9.13332L10.0003 8.99998L9.93366 9.16665L9.90033 8.99998L9.73366 9.06665L9.80033 8.89998L9.63366 8.83332L9.80033 8.76665L9.73366 8.59998L9.90033 8.66665L9.93366 8.56665ZM9.23366 9.79998L8.96699 9.99998L8.66699 9.79998L8.96699 9.63332L9.23366 9.79998ZM11.2003 9.79998L10.9337 9.99998L10.667 9.79998L10.9337 9.63332L11.2003 9.79998Z" fill="#FFE62E"/>
</svg>
