<svg width="20" height="20" viewBox="0 0 20 20" fill="none" xmlns="http://www.w3.org/2000/svg">
<path d="M0 9.99999C0 11.9667 0.567613 13.8 1.53589 15.3333H18.4641C19.4324 13.8 20 11.9667 20 9.99999C20 8.03332 19.4324 6.19999 18.4641 4.66666H1.53589C0.567613 6.19999 0 8.03332 0 9.99999Z" fill="#F9F9F9"/>
<path d="M18.4977 4.66667C16.7281 1.86667 13.5896 0 10.0169 0C6.44431 0 3.30575 1.86667 1.53613 4.66667H18.4977Z" fill="#C94747"/>
<path d="M1.53613 15.3333C3.30575 18.1333 6.44431 20 10.0169 20C13.5896 20 16.7281 18.1333 18.4977 15.3333H1.53613Z" fill="#699635"/>
<path d="M12.1194 11.4667C11.9191 11.6333 11.6853 11.7333 11.4182 11.7667C10.7838 11.8333 10.2162 11.3667 10.1494 10.7667V9.89999C10.1494 9.69999 10.3164 9.53332 10.5501 9.53332C10.6837 9.53332 10.8172 9.59999 10.884 9.69999C11.0509 9.23332 10.7838 8.76666 10.3164 8.59999C9.84894 8.43332 9.34811 8.69999 9.18116 9.16666C9.11438 9.33332 9.11438 9.53332 9.18116 9.69999C9.28133 9.53332 9.51505 9.46666 9.71539 9.56666C9.81555 9.63332 9.91572 9.73332 9.91572 9.86666V10.7333C9.84894 11.3333 9.28133 11.8 8.64694 11.7333C8.37983 11.7 8.1461 11.6 7.94577 11.4333C7.71205 12.0333 7.01088 12.3333 6.37649 12.0667C6.27632 12.0333 6.20954 12 6.10938 11.9333C6.20954 13 7.87899 12.8 8.01255 11.7333C8.54677 12.6333 9.682 12.3667 10.0159 11.2667C10.3498 12.3667 11.5184 12.6 12.0192 11.7333C12.1528 12.7667 13.8222 13 13.9224 11.9333C13.8556 12 13.7555 12.0333 13.6553 12.0667C13.0543 12.3667 12.3531 12.0667 12.1194 11.4667ZM9.34811 9.29999C9.3815 9.03332 9.61522 8.79999 9.91572 8.76666C10.283 8.73332 10.6169 8.96666 10.6503 9.29999C10.3832 9.23332 10.1161 9.36666 9.9825 9.56666C9.88233 9.36666 9.61522 9.26666 9.34811 9.29999Z" fill="#FFCE31"/>
<path d="M8.74734 12.6667C8.74734 12.6667 8.61379 12.6 8.38007 12.6333C8.34668 12.4667 8.21312 12.3333 8.11295 12.3C8.01279 12.4 7.94601 12.6 7.9794 12.7333C7.81245 12.7667 7.64551 12.8667 7.64551 12.8667C8.04618 13.2333 8.51362 13.1333 8.74734 12.6667ZM10.5837 12.6C10.5837 12.6 10.4836 12.5 10.2165 12.5C10.2165 12.3333 10.0829 12.2 10.0161 12.1C9.91596 12.2 9.81579 12.3667 9.81579 12.5C9.64885 12.5 9.44851 12.6 9.44851 12.6C9.7824 13.0667 10.2832 13.0333 10.5837 12.6ZM11.9193 12.2667C11.7857 12.3333 11.6856 12.5 11.6522 12.6333C11.4852 12.6 11.2849 12.6667 11.2849 12.6667C11.552 13.1667 12.0195 13.2333 12.3867 12.8333C12.3867 12.8333 12.2866 12.7333 12.0529 12.7C12.0862 12.5333 11.9861 12.3667 11.9193 12.2667Z" fill="#FFCE31"/>
<path d="M6.97776 13.4667L7.14471 14C9.04788 13.4667 11.0178 13.4667 12.921 14L13.0879 13.4667C11.0846 12.9 8.94771 12.9 6.97776 13.4667ZM9.74905 6.83333L9.5821 7.33333L10.0162 7L10.4502 7.33333L10.2833 6.83333L10.7507 6.5H10.1831L10.0162 6L9.84921 6.5H9.2816L9.74905 6.83333ZM7.61215 7.36667L7.41182 7.86667L7.87927 7.56667L8.31332 7.86667L8.14638 7.36667L8.61382 7.06667H8.04621L7.87927 6.56667L7.71232 7.06667H7.14471L7.61215 7.36667ZM6.04287 8.86667L5.84254 9.4L6.30998 9.06667L6.74404 9.4L6.57709 8.86667L7.04454 8.56667H6.47693L6.30998 8.06667L6.14304 8.56667H5.57543L6.04287 8.86667ZM5.74237 11.1333L6.17643 11.4333L6.00948 10.9333L6.47693 10.6333H5.90932L5.74237 10.1333L5.57543 10.6333H5.00781L5.44187 10.9333L5.27492 11.4333L5.74237 11.1333ZM11.8859 7.36667L11.719 7.86667L12.1531 7.56667L12.6205 7.86667L12.4202 7.36667L12.8876 7.06667H12.32L12.1531 6.56667L11.9861 7.06667H11.4185L11.8859 7.36667ZM13.4552 8.86667L13.2883 9.4L13.7223 9.06667L14.1898 9.4L13.9894 8.86667L14.4569 8.56667H13.8893L13.7223 8.06667L13.5554 8.56667H12.9878L13.4552 8.86667ZM14.5905 10.9333L15.0245 10.6333H14.4569L14.2899 10.1333L14.123 10.6333H13.5554L14.0228 10.9333L13.8559 11.4333L14.2899 11.1333L14.7574 11.4333L14.5905 10.9333Z" fill="#FFCE31"/>
</svg>
