<svg width="20" height="20" viewBox="0 0 20 20" fill="none" xmlns="http://www.w3.org/2000/svg">
<path d="M10.0002 0C5.76686 0 2.16686 2.63333 0.700195 6.33333H19.3002C17.8335 2.63333 14.2335 0 10.0002 0Z" fill="#42ADE2"/>
<path d="M10.0002 20C14.2335 20 17.8335 17.3667 19.3002 13.6667H0.700195C2.16686 17.3667 5.76686 20 10.0002 20Z" fill="#83BF4F"/>
<path d="M20 10C20 8.96667 19.8333 7.93333 19.5333 7H0.466667C0.166667 7.93333 0 8.96667 0 10C0 11.0333 0.166667 12.0667 0.466667 13H19.5333C19.8333 12.0667 20 11.0333 20 10Z" fill="white"/>
<path d="M19.2998 6.33334C19.3331 6.43334 19.3998 6.56668 19.4331 6.66668C19.4665 6.76668 19.4998 6.90001 19.5331 7.00001" fill="#C94747"/>
<path d="M19.4335 6.66668C19.4001 6.56668 19.3335 6.43334 19.3001 6.33334H0.70013C0.666797 6.43334 0.60013 6.56668 0.566797 6.66668C0.533464 6.76668 0.50013 6.90001 0.466797 7.00001H19.5335C19.5001 6.90001 19.4668 6.76668 19.4335 6.66668ZM0.566797 13.3333C0.60013 13.4333 0.666797 13.5667 0.70013 13.6667H19.3001C19.3335 13.5667 19.4001 13.4333 19.4335 13.3333C19.4668 13.2333 19.5001 13.1 19.5335 13H0.466797C0.50013 13.1 0.533464 13.2333 0.566797 13.3333Z" fill="#C94747"/>
<path d="M6.13333 5.1C5.33333 5.1 4.7 4.46667 4.7 3.66667C4.7 2.86667 5.33333 2.23333 6.13333 2.23333C6.33333 2.23333 6.5 2.26667 6.66667 2.33333C6.4 2.13333 6.03333 2 5.66667 2C4.73333 2 4 2.73333 4 3.66667C4 4.6 4.73333 5.33333 5.66667 5.33333C6.03333 5.33333 6.4 5.2 6.66667 5C6.5 5.06667 6.33333 5.1 6.13333 5.1ZM7.56667 4.4L7.7 4.76667H8.06667L7.76667 4.96667L7.86667 5.33333L7.56667 5.1L7.26667 5.33333L7.4 4.96667L7.1 4.76667H7.46667L7.56667 4.4ZM9 4.4L9.1 4.76667H9.5L9.2 4.96667L9.3 5.33333L9 5.1L8.7 5.33333L8.8 4.96667L8.5 4.76667H8.86667L9 4.4ZM10.4333 4.4L10.5333 4.76667H10.9L10.6 4.96667L10.7333 5.33333L10.4333 5.1L10.1 5.33333L10.2333 4.96667L9.93333 4.76667H10.3L10.4333 4.4ZM11.8333 4.4L11.9667 4.76667H12.3333L12.0333 4.96667L12.1333 5.33333L11.8333 5.1L11.5333 5.33333L11.6333 4.96667L11.3333 4.76667H11.7333L11.8333 4.4ZM13.2667 4.4L13.3667 4.76667H13.7667L13.4333 4.96667L13.5667 5.33333L13.2667 5.1L12.9667 5.33333L13.0667 4.96667L12.7667 4.76667H13.1333L13.2667 4.4ZM9 3.2L9.1 3.56667H9.5L9.2 3.76667L9.3 4.13333L9 3.9L8.7 4.13333L8.8 3.76667L8.5 3.56667H8.86667L9 3.2ZM10.4333 3.2L10.5333 3.56667H10.9L10.6 3.76667L10.7333 4.13333L10.4333 3.9L10.1 4.13333L10.2333 3.76667L9.93333 3.56667H10.3L10.4333 3.2ZM11.8333 3.2L11.9667 3.56667H12.3333L12.0333 3.76667L12.1333 4.13333L11.8333 3.9L11.5333 4.13333L11.6333 3.76667L11.3333 3.56667H11.7333L11.8333 3.2ZM13.2667 3.2L13.3667 3.56667H13.7667L13.4333 3.76667L13.5667 4.13333L13.2667 3.9L12.9667 4.13333L13.0667 3.76667L12.7667 3.56667H13.1333L13.2667 3.2ZM10.4333 2L10.5333 2.36667H10.9L10.6 2.56667L10.7333 2.93333L10.4333 2.7L10.1 2.93333L10.2333 2.56667L9.93333 2.36667H10.3L10.4333 2ZM11.8333 2L11.9667 2.36667H12.3333L12.0333 2.56667L12.1333 2.93333L11.8333 2.7L11.5333 2.93333L11.6333 2.56667L11.3333 2.36667H11.7333L11.8333 2ZM13.2667 2L13.3667 2.36667H13.7667L13.4333 2.56667L13.5667 2.93333L13.2667 2.7L12.9667 2.93333L13.0667 2.56667L12.7667 2.36667H13.1333L13.2667 2Z" fill="white"/>
</svg>
