<svg width="28" height="28" viewBox="0 0 28 28" fill="none" xmlns="http://www.w3.org/2000/svg">
<path d="M22.1668 28.0002C22.0338 28.0002 21.8997 27.9547 21.7912 27.8626C21.5672 27.6759 16.3335 23.2098 16.3335 18.6667C16.3335 15.4501 18.9503 12.8333 22.1668 12.8333C25.3833 12.8333 28.0002 15.4501 28.0002 18.6667C28.0002 23.2098 22.7665 27.6759 22.5425 27.8626C22.434 27.9547 22.2998 28.0002 22.1668 28.0002ZM22.1668 13.9999C19.5932 13.9999 17.5002 16.093 17.5002 18.6667C17.5002 22.0128 20.9967 25.5455 22.1668 26.6329C23.337 25.5443 26.8335 22.0128 26.8335 18.6667C26.8335 16.093 24.7405 13.9999 22.1668 13.9999Z" fill="#3D9AE2"/>
<path d="M22.1668 21C20.88 21 19.8335 19.9535 19.8335 18.6666C19.8335 17.3798 20.88 16.3333 22.1668 16.3333C23.4537 16.3333 24.5002 17.3798 24.5002 18.6666C24.5002 19.9535 23.4537 21 22.1668 21ZM22.1668 17.4999C21.5228 17.4999 21.0002 18.0226 21.0002 18.6666C21.0002 19.3106 21.5228 19.8333 22.1668 19.8333C22.8108 19.8333 23.3335 19.3106 23.3335 18.6666C23.3335 18.0226 22.8108 17.4999 22.1668 17.4999Z" fill="#3D9AE2"/>
<path d="M14.5833 23.3332H5.83333C4.5465 23.3332 3.5 22.2867 3.5 20.9999V12.833H1.16667C0.512167 12.833 0 12.3208 0 11.6663C0 11.3373 0.142333 11.0118 0.3815 10.7995L11.8533 0.155753C12.0762 -0.0519177 12.4227 -0.0519177 12.6467 0.155753L16.3333 3.57416V1.74945C16.3333 1.42745 16.5947 1.16611 16.9167 1.16611H20.4167C20.7387 1.16611 21 1.42745 21 1.74945V7.90025L22.7162 9.50095C22.9518 9.72029 22.9647 10.089 22.7442 10.3246C22.526 10.5591 22.1573 10.5743 21.9205 10.3526L20.0188 8.57926C19.901 8.47193 19.8333 8.31676 19.8333 8.15459V2.3328H17.5V4.91119C17.5 5.14336 17.3623 5.35336 17.15 5.44553C16.9365 5.53887 16.688 5.49686 16.52 5.33819L12.25 1.37845L1.16667 11.6617L4.08333 11.6663C4.40533 11.6663 4.66667 11.9277 4.66667 12.2497V20.9999C4.66667 21.6439 5.18933 22.1665 5.83333 22.1665H14.5833C14.9053 22.1665 15.1667 22.4279 15.1667 22.7499C15.1667 23.0719 14.9053 23.3332 14.5833 23.3332Z" fill="#3D9AE2"/>
</svg>
