<svg width="24" height="24" viewBox="0 0 24 24" fill="none" xmlns="http://www.w3.org/2000/svg">
<path d="M17.5 20.8695C15.57 20.8695 14 19.2313 14 17.2174C14 15.2034 15.57 13.5652 17.5 13.5652C19.43 13.5652 21 15.2034 21 17.2174C21 19.2313 19.43 20.8695 17.5 20.8695ZM17.5 15.1304C16.397 15.1304 15.5 16.0664 15.5 17.2174C15.5 18.3683 16.397 19.3043 17.5 19.3043C18.603 19.3043 19.5 18.3683 19.5 17.2174C19.5 16.0664 18.603 15.1304 17.5 15.1304Z" fill="#3D9AE2"/>
<path d="M17.5001 23.9999C15.5341 23.9999 13.6951 23.0869 12.4541 21.4935C11.2131 19.9001 10.7361 17.8131 11.1441 15.7669C11.6571 13.202 13.6521 11.1202 16.1091 10.586C18.0691 10.1592 20.0711 10.658 21.5971 11.9529C23.1241 13.2469 24.0001 15.1669 24.0001 17.2173V18.5216C24.0001 19.8166 22.9901 20.8695 21.7501 20.8695C20.5101 20.8695 19.5001 19.8166 19.5001 18.5216V14.3477C19.5001 13.9157 19.8361 13.5651 20.2501 13.5651C20.6641 13.5651 21.0001 13.9157 21.0001 14.3477V18.5216C21.0001 18.9536 21.3371 19.3042 21.7501 19.3042C22.1631 19.3042 22.5001 18.9536 22.5001 18.5216V17.2173C22.5001 15.6396 21.8261 14.163 20.6511 13.1665C19.4761 12.1689 17.9311 11.786 16.4161 12.1178C14.5341 12.5269 13.0061 14.1213 12.6131 16.0862C12.2971 17.6702 12.6631 19.2813 13.6181 20.5063C14.5731 21.7314 15.9881 22.4347 17.5001 22.4347C17.9141 22.4347 18.2501 22.7853 18.2501 23.2173C18.2501 23.6493 17.9141 23.9999 17.5001 23.9999Z" fill="#3D9AE2"/>
<path d="M9.25 14.6087H2.25C1.01 14.6087 0 13.5558 0 12.2609V2.34783C0 1.05287 1.01 0 2.25 0H19.75C20.99 0 22 1.05287 22 2.34783V8.6087C22 9.0407 21.664 9.3913 21.25 9.3913C20.836 9.3913 20.5 9.0407 20.5 8.6087V2.34783C20.5 1.91583 20.163 1.56522 19.75 1.56522H2.25C1.837 1.56522 1.5 1.91583 1.5 2.34783V12.2609C1.5 12.6929 1.837 13.0435 2.25 13.0435H9.25C9.664 13.0435 10 13.3941 10 13.8261C10 14.2581 9.664 14.6087 9.25 14.6087Z" fill="#3D9AE2"/>
<path d="M11.001 9.21089C10.597 9.21089 10.192 9.11489 9.82397 8.92185L0.416969 4.06133C0.0459695 3.86933 -0.105031 3.40081 0.0779695 3.01263C0.261969 2.6255 0.708969 2.46585 1.08297 2.65889L10.493 7.5215C10.803 7.68324 11.198 7.68324 11.504 7.52254L20.917 2.65889C21.291 2.46481 21.738 2.6255 21.922 3.01263C22.106 3.40081 21.954 3.86933 21.583 4.06133L12.173 8.92394C11.807 9.11489 11.404 9.21089 11.001 9.21089Z" fill="#3D9AE2"/>
</svg>
