<svg width="20" height="20" viewBox="0 0 20 20" fill="none" xmlns="http://www.w3.org/2000/svg">
<path d="M10 20C15.5228 20 20 15.5228 20 10C20 4.47715 15.5228 0 10 0C4.47715 0 0 4.47715 0 10C0 15.5228 4.47715 20 10 20Z" fill="#ED4C5C"/>
<path d="M6.66732 8.79998L9.33398 10.6666L8.33398 7.59998L11.0007 5.66665H7.70065L6.66732 2.66665L5.66732 5.66665H2.33398L5.00065 7.59998L4.00065 10.6666L6.66732 8.79998ZM11.1006 11.1L10.334 11.2666L11.0673 11.5666V12.3333L11.5673 11.7666L12.3007 12.0333L11.8673 11.4L12.334 10.8L11.5673 10.9666L11.1006 10.3333V11.1ZM12.234 8.83331L11.6673 9.33331L12.434 9.26665L12.7673 9.99998L12.9007 9.23331L13.6673 9.16665L13.0007 8.76665L13.1673 7.99998L12.6006 8.49998L11.934 8.09998L12.234 8.83331ZM12.434 6.23331L12.6673 6.99998L12.9007 6.26665H13.6673L13.0673 5.79998L13.3007 5.03331L12.6673 5.49998L12.0673 4.99998L12.3007 5.76665L11.6673 6.19998L12.434 6.23331ZM11.1006 3.56665V4.33331L11.5673 3.69998L12.334 3.86665L11.8673 3.26665L12.3007 2.63331L11.5673 2.93331L11.0673 2.33331V3.09998L10.334 3.39998L11.1006 3.56665Z" fill="#FFE62E"/>
</svg>
