<svg width="20" height="20" viewBox="0 0 20 20" fill="none" xmlns="http://www.w3.org/2000/svg">
<path d="M0 9.99998C0 14.3667 2.8 18.0667 6.66667 19.4333V0.56665C2.8 1.93332 0 5.63332 0 9.99998Z" fill="#75A843"/>
<path d="M19.9997 9.99998C19.9997 5.63332 17.1997 1.93332 13.333 0.56665V19.4333C17.233 18.0667 19.9997 14.3667 19.9997 9.99998Z" fill="#ED4C5C"/>
<path d="M6.66699 19.4333C7.70033 19.8 8.83366 20 10.0003 20C11.167 20 12.3003 19.8 13.3337 19.4333V0.566667C12.3003 0.2 11.167 0 10.0003 0C8.83366 0 7.70033 0.2 6.66699 0.566667V19.4333Z" fill="white"/>
</svg>
