<svg width="20" height="20" viewBox="0 0 20 20" fill="none" xmlns="http://www.w3.org/2000/svg">
<path d="M10 20C15.5228 20 20 15.5228 20 10C20 4.47715 15.5228 0 10 0C4.47715 0 0 4.47715 0 10C0 15.5228 4.47715 20 10 20Z" fill="#F5F5F5"/>
<path d="M7.13389 10.5667C8.06722 11.2 9.36722 10.9333 10.0006 9.99999C10.6339 9.06666 11.9006 8.79999 12.8672 9.43333C13.7672 10.0333 14.0339 11.2 13.5339 12.1C14.6339 10.2333 14.1339 7.79999 12.2672 6.56666C10.3672 5.29999 7.80056 5.79999 6.53389 7.69999C6.50056 7.76666 6.46722 7.83333 6.43389 7.86666C5.96722 8.83333 6.26722 9.96666 7.13389 10.5667Z" fill="#ED4C5C"/>
<path d="M13.4336 12.3C13.4669 12.2333 13.5003 12.1667 13.5336 12.1333C13.5003 12.1667 13.4669 12.2333 13.4336 12.3Z" fill="#003478"/>
<path d="M12.8668 9.43333C11.9335 8.79999 10.6335 9.06666 10.0002 9.99999C9.36682 10.9333 8.10015 11.2 7.13349 10.5667C6.23349 9.96666 5.96682 8.79999 6.46682 7.89999C5.33349 9.76666 5.86682 12.2 7.73349 13.4333C9.63349 14.7 12.2002 14.2 13.4668 12.3C13.5002 12.2333 13.5335 12.1667 13.5668 12.1333C14.0335 11.1667 13.7335 10.0333 12.8668 9.43333Z" fill="#428BC1"/>
<path d="M1.93346 7.1L4.23346 3.66667L4.00013 3.5L3.7668 3.36667L1.4668 6.8L1.70013 6.93333L1.93346 7.1ZM2.5668 7.53334L2.80013 7.66667L5.0668 4.23334L4.8668 4.1L4.63346 3.93334L2.33346 7.36667L2.5668 7.53334ZM5.4668 4.5L3.20013 7.93333L3.43346 8.1L3.6668 8.23334L5.93346 4.8L5.70013 4.66667L5.4668 4.5ZM15.5001 13.5L15.7335 13.6667L16.8001 12.0667L16.5668 11.9L16.3335 11.7667L15.2668 13.3667L15.5001 13.5ZM18.0668 12.9L17.0001 14.5L17.2335 14.6667L17.4668 14.8L18.5335 13.2L18.3001 13.0667L18.0668 12.9ZM16.6001 14.2333L17.6668 12.6333L17.4335 12.4667L17.2001 12.3333L16.1335 13.9333L16.3668 14.0667L16.6001 14.2333ZM15.3668 13.7333L15.1335 13.6L14.0668 15.2L14.3001 15.3333L14.5335 15.5L15.6001 13.9L15.3668 13.7333ZM16.2001 14.3L16.0001 14.1667L14.9335 15.7667L15.1335 15.9L15.3668 16.0667L16.4335 14.4667L16.2001 14.3ZM16.8335 14.7333L15.7668 16.3333L16.0001 16.5L16.2335 16.6333L17.3001 15.0333L17.0668 14.8667L16.8335 14.7333ZM1.70013 13.0667L1.4668 13.2L3.7668 16.6333L4.00013 16.5L4.23346 16.3333L1.93346 12.9L1.70013 13.0667ZM3.80013 14.3L3.5668 14.4667L4.63346 16.0667L4.8668 15.9L5.0668 15.7667L4.00013 14.1667L3.80013 14.3ZM3.43346 11.9L3.20013 12.0667L5.4668 15.5L5.70013 15.3333L5.93346 15.2L3.6668 11.7667L3.43346 11.9ZM2.33346 12.6333L3.40013 14.2333L3.63346 14.0667L3.8668 13.9333L2.80013 12.3333L2.5668 12.4667L2.33346 12.6333ZM17.0668 5.13333L17.3001 4.96667L16.2335 3.36667L16.0001 3.5L15.7668 3.66667L16.8335 5.26667L17.0668 5.13333ZM15.3668 6.26667L15.6001 6.1L14.5335 4.5L14.3001 4.66667L14.0668 4.8L15.1335 6.4L15.3668 6.26667ZM17.0001 5.5L18.0668 7.1L18.3001 6.93333L18.5335 6.8L17.4668 5.2L17.2335 5.33334L17.0001 5.5ZM17.4335 7.53334L17.6668 7.36667L15.3668 3.93334L15.1335 4.1L14.9335 4.23334L17.2001 7.66667L17.4335 7.53334ZM16.5668 8.1L16.8001 7.93333L15.7335 6.33334L15.5001 6.5L15.2668 6.63333L16.3335 8.23334L16.5668 8.1Z" fill="#3E4347"/>
</svg>
