<svg width="20" height="20" viewBox="0 0 20 20" fill="none" xmlns="http://www.w3.org/2000/svg">
<path d="M9.99974 0C5.63307 0 1.93307 2.8 0.566406 6.66667H19.4331C18.0664 2.8 14.3664 0 9.99974 0Z" fill="#ED4C5C"/>
<path d="M9.99974 20C14.3664 20 18.0664 17.2333 19.4331 13.3333H0.566406C1.93307 17.2333 5.63307 20 9.99974 20Z" fill="#F9F9F9"/>
<path d="M0.566667 6.66667C0.2 7.7 0 8.83334 0 10C0 11.1667 0.2 12.3 0.566667 13.3333H19.4333C19.8 12.3 20 11.1667 20 10C20 8.83334 19.8 7.7 19.4333 6.66667H0.566667Z" fill="#2872A0"/>
<path d="M4.5 6.56667V11.9667C4.5 13.8333 6.06667 15.3333 8 15.3333C9.93333 15.3333 11.5 13.8333 11.5 11.9667V6.56667H4.5Z" fill="#ED4C5C"/>
<path d="M9.26651 14.7667L9.19984 14.4667L8.93318 14L9.03318 13.9333L8.96651 13.6333L8.73318 13.2667L8.79984 13.2333L8.73318 12.9333L8.56651 12.6L8.83318 12.1L8.99984 12.6333L9.13318 12.4333L9.33318 12.7333L9.39984 12.5333L9.59984 12.6333L9.56651 12.2333L10.0332 12.3667L9.69984 11.9333H9.73318L9.46651 11.4L9.53318 11.2L9.69984 11.5333L9.76651 11.4L10.0332 12.1333V12.1L10.1665 12.3667L10.2332 12.2333L10.4998 12.7667L10.5998 12.4667L10.9998 12.7667C10.9998 12.7667 10.9665 11.7667 10.9665 11.4667C11.0332 10.6 11.3332 8.83334 11.0998 8.03334C10.9998 7.63334 10.1998 6.66667 10.1998 6.66667C10.1998 6.66667 10.1665 7.83334 9.96651 8.20001C9.89984 8.33334 9.29984 8.70001 9.29984 8.70001L9.06651 8.66667L9.16651 8.63334L8.73318 8.20001L8.89984 7.33334L9.33318 6.70001L8.66651 6.73334L8.16651 6.86667L8.29984 7.06667L7.99984 8.13334L7.69984 7.1L7.83318 6.90001L7.33318 6.73334L6.66651 6.70001L7.09984 7.33334L7.26651 8.20001L6.83318 8.63334L6.93318 8.66667L6.66651 8.73334C6.66651 8.73334 6.06651 8.36667 5.99984 8.23334C5.79984 7.90001 5.76651 6.70001 5.76651 6.70001C5.76651 6.70001 4.96651 7.66667 4.86651 8.06667C4.63318 8.90001 4.96651 10.6667 4.99984 11.5C5.03318 11.8333 4.96651 12.8 4.96651 12.8L5.36651 12.5L5.46651 12.8L5.73318 12.2667L5.79984 12.4L5.93318 12.1333V12.1667L6.19984 11.4333L6.26651 11.5667L6.43318 11.2333L6.49984 11.4333L6.23318 11.9667H6.26651L5.93318 12.4L6.39984 12.2667V12.6667L6.59984 12.5667L6.66651 12.7667L6.86651 12.4667L6.99984 12.6667L7.16651 12.1333L7.43318 12.6333L7.26651 12.9667L7.19984 13.2667L7.26651 13.3L7.03318 13.6667L6.96651 13.9667L7.06651 14.0333L6.83318 14.5333L6.76651 14.8333L9.26651 14.7667Z" fill="white"/>
<path d="M6.00033 13.2333L6.06699 13.1L6.36699 12.9667L6.56699 12.9H6.70033L6.73366 12.8667L6.53366 12.7667L6.50033 12.7333L6.33366 12.8L6.20033 12.9L6.46699 12.5667L6.70033 12.0333L6.33366 12.2667L6.00033 12.8667L5.86699 12.9333H5.53366L5.36699 12.9L5.16699 13L5.20033 13.0333H5.33366L5.46699 13.1L5.76699 13.0667L5.43366 13.1667L5.36699 13.3V13.5H5.40033L5.43366 13.4H5.60033L5.90033 13.1333L5.66699 13.5L5.63366 13.6667L5.73366 13.9L5.80033 13.8667V13.7L5.93366 13.5667L6.00033 13.2333ZM9.96699 13.2333L9.93366 13.1L9.63366 12.9667L9.43366 12.9H9.30032L9.26699 12.8667L9.46699 12.7667L9.50033 12.7333L9.66699 12.8L9.80032 12.9L9.53366 12.5667L9.30032 12.0333L9.66699 12.2667L10.0003 12.8667L10.1337 12.9333H10.467L10.6337 12.9L10.8337 13L10.8003 13.0333H10.667L10.5337 13.1L10.2337 13.0667L10.567 13.1667L10.6337 13.3V13.5H10.6003L10.567 13.4H10.4003L10.1003 13.1333L10.3337 13.5L10.367 13.6667L10.267 13.9L10.2003 13.8667V13.7L10.067 13.5667L9.96699 13.2333ZM6.46699 6.73334C6.13366 6.76667 6.16699 7 6.46699 7.3C6.53366 7.36667 6.53366 7.36667 6.56699 7.3C6.60033 7.2 6.70033 7.13334 6.76699 7.2C6.80033 7.26667 6.80033 7.3 6.93366 7.26667C6.96699 7.3 7.03366 7.33334 7.06699 7.36667C7.03366 7.36667 6.90033 7.4 6.70033 7.43333C6.53366 7.46667 6.43366 7.4 6.30033 7.26667C6.33366 7.43333 6.73366 7.53334 6.70033 7.53334C6.73366 7.6 6.73366 7.63333 6.76699 7.63333C6.90033 7.66667 7.03366 7.56667 7.16699 7.6C7.46699 7.66667 6.96699 6.83333 7.00033 6.8C7.03366 6.73333 6.56699 6.6 6.46699 6.73334ZM9.20033 7.66667C9.23366 7.66667 9.23366 7.66667 9.26699 7.56667C9.23366 7.56667 9.63366 7.46667 9.66699 7.3C9.56699 7.43333 9.43366 7.5 9.26699 7.46667C9.06699 7.43333 8.93366 7.36667 8.90033 7.4C8.93366 7.36667 8.96699 7.33333 9.03366 7.3C9.16699 7.33333 9.16699 7.3 9.20033 7.23334C9.26699 7.16667 9.36699 7.2 9.40033 7.33333C9.40033 7.4 9.43366 7.4 9.50033 7.33333C9.80033 7.03333 9.83366 6.8 9.50033 6.76667C9.43366 6.63333 8.96699 6.76667 9.00033 6.86667C9.00033 6.9 8.53366 7.73333 8.83366 7.66667C8.93366 7.6 9.06699 7.66667 9.20033 7.66667Z" fill="#FFCE31"/>
<path d="M6.5332 8.86667V11.3C6.5332 12.0333 7.19987 12.6333 7.99987 12.6333C8.79987 12.6333 9.46654 12.0333 9.46654 11.3V8.86667H6.5332Z" fill="#ED4C5C"/>
<path d="M7.59961 8.43333H8.43294V13.4333H7.59961V8.43333Z" fill="white"/>
<path d="M5.7002 10.1H10.3002V10.9333H5.7002V10.1ZM7.33353 9.46667L7.0002 9.8L7.10019 9.46667L7.0002 9.16667L7.33353 9.46667ZM7.33353 11.5667L7.0002 11.9L7.10019 11.5667L7.0002 11.2333L7.33353 11.5667ZM8.66686 9.46667L9.0002 9.8L8.93353 9.46667L9.0002 9.16667L8.66686 9.46667ZM8.66686 11.5667L9.0002 11.9L8.93353 11.5667L9.0002 11.2333L8.66686 11.5667Z" fill="white"/>
<path d="M8.33366 3.23334H7.66699V3.9H8.33366V3.23334Z" fill="#428BC1"/>
<path d="M7.69949 2.80001L7.76615 2.83334L7.83282 2.80001H7.93282V3.20001H7.66615V3.33334H8.33282V3.20001H8.06615V2.80001H8.16615L8.23282 2.83334L8.29949 2.80001L8.36615 2.73334L8.29949 2.66668L8.23282 2.60001L8.16615 2.66668H8.06615V2.53334L8.13282 2.46668L8.06615 2.40001L7.99949 2.33334L7.93282 2.40001L7.86615 2.46668L7.93282 2.53334V2.66668H7.83282L7.76615 2.60001L7.69949 2.66668L7.63282 2.73334L7.69949 2.80001ZM10.1662 4.13334C9.73282 3.90001 9.46615 3.83334 9.36615 4.00001C9.36615 4.00001 9.36615 4.03334 9.33282 4.03334C8.79949 3.76668 8.39949 3.73334 7.99949 3.90001C7.59949 3.73334 7.23282 3.76668 6.66615 4.03334C6.66615 4.00001 6.66615 4.00001 6.63282 4.00001C6.53282 3.83334 6.26615 3.86668 5.83282 4.13334C5.39949 4.36668 4.99949 4.70001 5.09949 4.83334C5.13282 5.06668 5.26615 5.26668 5.49949 5.50001C5.76615 5.63334 6.29949 5.66668 6.86615 5.63334C7.59949 5.60001 8.36615 5.60001 9.09949 5.63334C9.66615 5.66668 10.1995 5.63334 10.4662 5.50001C10.6995 5.26668 10.8328 5.06668 10.8662 4.83334C10.9995 4.73334 10.5662 4.40001 10.1662 4.13334Z" fill="#FFCE31"/>
<path d="M8.46685 5.06666C8.73351 4.83333 8.90018 4.6 9.03351 4.36666C8.80018 4.3 8.56685 4.26666 8.36685 4.3C8.40018 4.56666 8.43351 4.83333 8.46685 5.06666ZM7.53351 5.06666C7.56685 4.8 7.60018 4.53333 7.66685 4.26666C7.46685 4.23333 7.23351 4.26666 7.00018 4.33333C7.06685 4.6 7.26685 4.83333 7.53351 5.06666ZM10.2002 4.6C10.1668 4.56666 10.1002 4.5 10.0002 4.46666C9.90018 4.43333 9.80018 4.4 9.73351 4.4C9.70018 4.66666 9.60018 4.93333 9.36685 5.2C9.46685 5.2 9.56685 5.16666 9.63351 5.13333C9.90018 5 10.0668 4.83333 10.2002 4.7C10.2335 4.66666 10.2335 4.63333 10.2002 4.6ZM6.26685 4.36666C6.20018 4.36666 6.10018 4.4 6.00018 4.43333C5.83351 4.5 5.73351 4.63333 5.80018 4.66666C5.93351 4.8 6.10018 4.93333 6.36685 5.1C6.43351 5.13333 6.53351 5.13333 6.63351 5.16666C6.40018 4.9 6.30018 4.66666 6.26685 4.36666Z" fill="#ED4C5C"/>
<path d="M5.5332 5.5H10.4665V6.16667H5.5332V5.5Z" fill="#FFCE31"/>
<path d="M5.53372 5.63334L5.40039 5.86668L5.56706 6.03334L5.80039 5.80001L5.53372 5.63334ZM10.4671 5.63334L10.2004 5.80001L10.4337 6.03334L10.6004 5.86668L10.4671 5.63334ZM8.00039 5.46667L7.73372 5.70001L8.00039 5.90001L8.26706 5.70001L8.00039 5.46667Z" fill="#428BC1"/>
<path d="M6.76667 5.93332L7 5.69999L6.73333 5.53333L6.5 5.73333L6.76667 5.93332ZM9.23333 5.93332L9.5 5.73333L9.26667 5.53333L9 5.69999L9.23333 5.93332Z" fill="#ED4C5C"/>
</svg>
