<svg width="20" height="20" viewBox="0 0 20 20" fill="none" xmlns="http://www.w3.org/2000/svg">
<path d="M0 9.99999C0 11.9667 0.567613 13.8 1.53589 15.3333H18.4641C19.4324 13.8 20 11.9667 20 9.99999C20 8.03332 19.4324 6.19999 18.4641 4.66666H1.53589C0.567613 6.19999 0 8.03332 0 9.99999Z" fill="#FFCE31"/>
<path d="M18.4977 4.66667C16.7281 1.86667 13.5896 0 10.0169 0C6.44431 0 3.30575 1.86667 1.53613 4.66667H18.4977ZM1.53613 15.3333C3.30575 18.1333 6.44431 20 10.0169 20C13.5896 20 16.7281 18.1333 18.4977 15.3333H1.53613Z" fill="#ED4C5C"/>
<path d="M2.4043 8.89999H3.47274V9.49999H2.4043V8.89999ZM2.4043 13.3H3.50613V13.8667H2.4043V13.3Z" fill="#C8B100"/>
<path d="M2.30366 12.3667C2.2035 12.4334 2.13672 12.5002 2.13672 12.5336C2.13672 12.567 2.17011 12.6004 2.23689 12.6338C2.30366 12.6672 2.37044 12.7339 2.33705 12.8007C2.40383 12.7339 2.43722 12.6672 2.43722 12.6004C2.43722 12.5002 2.37044 12.4001 2.30366 12.3667Z" fill="#ED4C5C"/>
<path d="M2.57031 9.5H3.33826V13.3H2.57031V9.5Z" fill="white"/>
<path d="M4.14079 10.9C3.97385 10.8333 3.67335 10.7666 3.33946 10.7666C3.23929 10.7666 3.10574 10.7666 2.97218 10.8C2.50473 10.8666 2.13745 11.0666 2.17084 11.2L2.0039 10.8333C1.97051 10.6666 2.37118 10.4666 2.87201 10.3666C3.03896 10.3333 3.2059 10.3333 3.33946 10.3333C3.67335 10.3333 3.97385 10.3666 4.14079 10.4333V10.9Z" fill="#ED4C5C"/>
<path d="M2.57138 11.4006C2.37105 11.4006 2.2041 11.3339 2.2041 11.2337C2.2041 11.1669 2.27088 11.0667 2.40444 11H2.60477L2.57138 11.4006ZM3.33933 11.1001C3.47288 11.1335 3.57305 11.1669 3.63983 11.2003C3.67322 11.2337 3.53966 11.3672 3.33933 11.4674V11.1001Z" fill="#ED4C5C"/>
<path d="M2.07056 12.1333C2.03717 12.0666 2.2709 11.9333 2.5714 11.8333C2.70495 11.8 2.80512 11.7333 2.97207 11.6666C3.37273 11.5 3.70662 11.2666 3.63985 11.2L3.70662 11.6C3.74001 11.6666 3.4729 11.8666 3.07223 12.0666C2.93868 12.1333 2.70495 12.2333 2.5714 12.2666C2.33768 12.3333 2.13734 12.4666 2.13734 12.5L2.07056 12.1333Z" fill="#ED4C5C"/>
<path d="M9.58222 8.89999H10.6507V9.49999H9.58222V8.89999ZM9.54883 13.3H10.6507V13.8667H9.54883V13.3Z" fill="#C8B100"/>
<path d="M10.7507 12.3667C10.8509 12.4334 10.9177 12.5002 10.9177 12.5336C10.9177 12.567 10.8843 12.6004 10.8175 12.6338C10.7507 12.7006 10.684 12.8007 10.7174 12.8341C10.6506 12.7673 10.6172 12.7006 10.6172 12.6338C10.6172 12.5002 10.684 12.4001 10.7507 12.3667Z" fill="#ED4C5C"/>
<path d="M9.7168 9.5H10.4847V13.3H9.7168V9.5Z" fill="white"/>
<path d="M8.91504 10.9C9.08198 10.8333 9.38248 10.7667 9.71637 10.7667C9.81654 10.7667 9.9501 10.7667 10.0837 10.8C10.5511 10.8667 10.9184 11.0667 10.885 11.2L11.0519 10.8C11.0853 10.6333 10.6847 10.4333 10.1838 10.3333H9.71637C9.38248 10.3333 9.08198 10.3667 8.91504 10.4333V10.9Z" fill="#ED4C5C"/>
<path d="M10.4847 11.4007C10.685 11.4007 10.852 11.3339 10.852 11.2337C10.852 11.1669 10.7852 11.0668 10.6516 11H10.4513L10.4847 11.4007ZM9.71675 11.1002C9.58319 11.1336 9.48302 11.1669 9.41625 11.2003C9.38286 11.2337 9.51641 11.3673 9.71675 11.4674V11.1002Z" fill="#ED4C5C"/>
<path d="M10.9856 12.1333C11.0189 12.0667 10.7852 11.9333 10.4847 11.8333C10.3512 11.8 10.251 11.7333 10.0841 11.6667C9.68338 11.5 9.34949 11.2667 9.41627 11.2L9.34949 11.6C9.3161 11.6667 9.58321 11.8667 9.98388 12.0667C10.1174 12.1333 10.3512 12.2333 10.4847 12.2667C10.7184 12.3333 10.9188 12.5 10.8854 12.5333L10.9856 12.1333ZM6.51143 6.76666C7.14582 6.76666 8.44799 6.9 8.91544 7.36666C8.4146 8.56666 7.61326 8.06666 6.51143 8.06666C5.44298 8.06666 4.60826 8.56666 4.10742 7.36666C4.57487 6.9 5.84365 6.76666 6.51143 6.76666Z" fill="#ED4C5C"/>
<path d="M8.14672 8.09999C7.74605 7.86666 7.14505 7.83332 6.51066 7.83332C5.87627 7.83332 5.27527 7.89999 4.8746 8.09999L5.00816 8.66666C5.37544 8.76666 5.90966 8.83332 6.51066 8.83332C7.11166 8.83332 7.6125 8.76666 8.01316 8.66666L8.14672 8.09999ZM8.71433 6.66666C8.58078 6.56666 8.31367 6.46666 8.07994 6.46666C7.97978 6.46666 7.87961 6.46666 7.77944 6.49999C7.77944 6.49999 7.57911 6.23332 7.11166 6.23332C6.94472 6.23332 6.81116 6.26666 6.67761 6.33332V6.29999C6.64422 6.23332 6.57744 6.16666 6.51066 6.16666C6.44388 6.16666 6.34372 6.26666 6.34372 6.33332V6.36666C6.21016 6.29999 6.0766 6.26666 5.90966 6.26666C5.44221 6.26666 5.24188 6.56666 5.24188 6.53332C5.14171 6.49999 5.04155 6.49999 4.94138 6.49999C3.40549 6.49999 4.17343 7.53332 4.17343 7.53332L4.34038 7.33332C3.9731 6.86666 4.30699 6.59999 4.97477 6.59999C5.07493 6.59999 5.14171 6.59999 5.20849 6.63332C4.97477 6.96666 5.40882 7.26666 5.40882 7.26666L5.50899 7.09999C5.27527 6.93332 5.24188 6.36666 5.90966 6.36666C6.0766 6.36666 6.21016 6.39999 6.34372 6.49999C6.34372 6.53332 6.31033 6.99999 6.27694 7.06666L6.54405 7.29999L6.81116 7.06666C6.77777 6.96666 6.74438 6.53332 6.74438 6.49999C6.84455 6.43332 7.0115 6.36666 7.17844 6.36666C7.87961 6.36666 7.87961 6.93332 7.57911 7.09999L7.67928 7.26666C7.67928 7.26666 8.04655 6.96666 7.87961 6.63332C7.94639 6.63332 8.04655 6.59999 8.11333 6.59999C8.91467 6.59999 8.94806 7.19999 8.74772 7.33332L8.88128 7.53332C8.8145 7.53332 9.18178 7.06666 8.71433 6.66666Z" fill="#C8B100"/>
<path d="M6.31055 6.03368C6.31055 5.93351 6.41071 5.83334 6.51088 5.83334C6.64444 5.83334 6.71121 5.93351 6.71121 6.03368C6.71121 6.13384 6.61105 6.23401 6.51088 6.23401C6.41071 6.23401 6.31055 6.13384 6.31055 6.03368Z" fill="#005BBF"/>
<path d="M6.4441 5.46667V5.56668H6.34394V5.66667H6.4441V6.00001H6.31055V6.10001H6.71121L6.7446 6.03334L6.71121 6.00001H6.57766V5.66667H6.67783V5.56668H6.57766V5.46667H6.4441Z" fill="#C8B100"/>
<path d="M6.51153 8.76724C5.9773 8.76724 5.50986 8.70046 5.14258 8.60029C5.50986 8.50013 5.9773 8.43335 6.51153 8.43335C7.04575 8.43335 7.5132 8.50013 7.88047 8.60029C7.54659 8.70046 7.04575 8.76724 6.51153 8.76724Z" fill="#ED4C5C"/>
<path d="M6.54463 14.5333C5.91024 14.5333 5.30924 14.3667 4.77502 14.1333C4.37435 13.9333 4.14062 13.5667 4.14062 13.1333V11.5333H8.94864V13.1333C8.94864 13.5667 8.68153 13.9667 8.31425 14.1333C7.78002 14.4 7.17902 14.5333 6.54463 14.5333ZM6.51124 8.86667H8.91525V11.5333H6.51124V8.86667Z" fill="white"/>
<path d="M6.54463 13.1333C6.54463 13.7667 6.01041 14.2667 5.34263 14.2667C4.67485 14.2667 4.14062 13.7667 4.14062 13.1333V11.5333H6.54463V13.1333Z" fill="#ED4C5C"/>
<path d="M4.64165 14.0667C4.70842 14.1 4.80859 14.1667 4.94215 14.2V11.4667H4.67503L4.64165 14.0667ZM4.10742 13.1C4.10742 13.4333 4.24098 13.7 4.37453 13.8333V11.4667H4.10742V13.1Z" fill="#C8B100"/>
<path d="M5.17578 14.2667H5.44289V11.4667H5.17578V14.2667Z" fill="#C7B500"/>
<path d="M5.70898 14.2C5.80915 14.1667 5.94271 14.1 6.00949 14.0667V11.4667H5.74237L5.70898 14.2Z" fill="#C8B100"/>
<path d="M4.10742 8.86667H6.51143V11.5333H4.10742V8.86667Z" fill="#ED4C5C"/>
<path d="M6.27734 13.8333C6.4109 13.7333 6.51107 13.5 6.54446 13.2333V11.5H6.27734V13.8333Z" fill="#C8B100"/>
<path d="M8.94832 11.5333V13.1333C8.94832 13.7667 8.4141 14.2667 7.74632 14.2667C7.07854 14.2667 6.54432 13.7667 6.54432 13.1333V11.5333H8.94832ZM8.08021 9.33334C8.18038 9.53334 8.18038 10.0333 7.87988 9.93334C7.94665 9.96667 7.98004 10.2 8.08021 10.3333C8.24716 10.5333 8.44749 10.3667 8.4141 10.1333C8.34732 9.76667 8.38071 9.53334 8.44749 9.16667C8.44749 9.2 8.61443 9.2 8.68121 9.13334C8.64782 9.23334 8.61443 9.36667 8.68121 9.36667C8.61443 9.46667 8.44749 9.63334 8.4141 9.73334C8.38071 9.96667 8.74799 10.4 8.34732 10.5C8.08021 10.5667 8.24716 10.7667 8.34732 10.8667C8.34732 10.8667 8.21377 11.3 8.28054 11.2667C8.01343 11.3667 8.08021 11.1333 8.08021 11.1333C8.21377 10.7333 7.84649 10.7 7.87988 10.6333C7.54599 10.6 7.91327 10.9333 7.61276 10.9333C7.54599 10.9333 7.41243 11 7.41243 11C7.04515 10.9667 7.24549 10.6333 7.37904 10.6667C7.47921 10.7 7.57938 10.8667 7.57938 10.6333C7.57938 10.6333 7.41243 10.3667 7.84649 10.3667C7.67954 10.3667 7.57938 10.2333 7.5126 10.0667C7.44582 10.1 7.34565 10.2667 6.97837 10.3C6.97837 10.3 6.87821 9.93334 6.97837 10C7.11193 10.0667 7.17871 10.0667 7.31226 9.93334C7.24549 9.83334 6.84482 9.7 6.9116 9.46667C6.9116 9.4 7.11193 9.3 7.11193 9.3C7.07854 9.46667 7.17871 9.63334 7.37904 9.63334C7.64615 9.66667 7.54599 9.56667 7.57938 9.5C7.61276 9.43334 7.8131 9.53334 7.74632 9.36667C7.74632 9.33334 7.5126 9.3 7.57938 9.2C7.71293 9.03334 7.91327 9.16667 8.08021 9.33334ZM6.54432 14.2L6.47754 14.0333L6.54432 13.8333L6.61109 14.0333L6.54432 14.2Z" fill="#ED4C5C"/>
<path d="M4.84096 9.43335V9.60002H4.90774V9.73335H4.74079V10.0667H4.84096V10.8H4.64062V11.1667H6.00957V10.8H5.84263V10.0667H5.90941V9.73335H5.74246V9.60002H5.84263V9.43335H5.50874V9.60002H5.57552V9.73335H5.40857V9.33335H5.50874V9.16669H5.14146V9.33335H5.24163V9.73335H5.07468V9.60002H5.14146V9.43335H4.84096ZM8.61391 13.5334V11.8667H6.87769V13.5334L7.67902 13.9H7.77919L8.61391 13.5334ZM7.67902 12V12.5667L7.11141 12H7.67902ZM6.97785 12.0334L7.64563 12.7L6.97785 13.3667V12.0334ZM7.04463 13.5L7.67902 12.8667V13.8L7.04463 13.5ZM7.77919 13.7667V12.8334L8.41358 13.4667L7.77919 13.7667ZM8.48036 13.3667L7.81258 12.7L8.48036 12.0334V13.3667ZM7.77919 12H8.3468L7.77919 12.5667V12Z" fill="#C8B100"/>
<path d="M5.74316 11.5C5.74316 11 6.07705 10.6333 6.51111 10.6333C6.94517 10.6333 7.27906 11.0333 7.27906 11.5C7.27906 11.9667 6.94517 12.3667 6.51111 12.3667C6.07705 12.3667 5.74316 12 5.74316 11.5Z" fill="#ED4C5C"/>
<path d="M5.97656 11.5C5.97656 11.1333 6.21029 10.8667 6.51079 10.8667C6.81129 10.8667 7.04501 11.1667 7.04501 11.5C7.04501 11.8667 6.81129 12.1333 6.51079 12.1333C6.24367 12.1667 5.97656 11.8667 5.97656 11.5Z" fill="#005BBF"/>
<path d="M6.27711 11.0667L6.14355 11.4333L6.24372 11.4667L6.17694 11.6H6.37728L6.3105 11.4667L6.41067 11.4333L6.27711 11.0667ZM6.77795 11.0667L6.64439 11.4333L6.74456 11.4667L6.67778 11.6H6.87811L6.84472 11.4667L6.94489 11.4333L6.77795 11.0667ZM6.54422 11.5L6.37728 11.8667L6.47744 11.9L6.44406 12.0333H6.611L6.57761 11.9L6.67778 11.8667L6.54422 11.5Z" fill="#C8B100"/>
</svg>
