<svg width="20" height="20" viewBox="0 0 20 20" fill="none" xmlns="http://www.w3.org/2000/svg">
<path d="M10 20C15.5228 20 20 15.5228 20 10C20 4.47715 15.5228 0 10 0C4.47715 0 0 4.47715 0 10C0 15.5228 4.47715 20 10 20Z" fill="#ED4C5C"/>
<path d="M13.0997 12.3334L13.133 10.5334L11.333 10L13.133 9.46669L13.0997 7.66669L14.1997 9.10002L15.9997 8.56669L14.8997 10L15.9997 11.4334L14.1997 10.9L13.0997 12.3334Z" fill="white"/>
<path d="M10.4 14C8.2 14 6.43333 12.2 6.43333 10C6.43333 7.8 8.2 6 10.4 6C11.2333 6 12 6.26667 12.6667 6.7C11.7667 5.66667 10.4333 5 8.93333 5C6.2 5 4 7.23333 4 10C4 12.7667 6.2 15 8.93333 15C10.4333 15 11.7667 14.3333 12.6667 13.3C12.0333 13.7333 11.2667 14 10.4 14Z" fill="white"/>
</svg>
